<?xml version="1.0" encoding="utf-8"?>
<!-- Generator: Adobe Illustrator 23.0.3, SVG Export Plug-In . SVG Version: 6.00 Build 0)  -->
<svg version="1.2" baseProfile="tiny" id="Layer_2" xmlns="http://www.w3.org/2000/svg" xmlns:xlink="http://www.w3.org/1999/xlink"
	 x="0px" y="0px" viewBox="0 0 61.1 50" xml:space="preserve">
<path fill="#24FC89" d="M48.8,31.3c-0.4-1.9-2.1-3.4-4.1-3.6c-0.7-0.1-1.4,0-2.1,0c-0.2,0-0.2,0-0.2-0.2c0-0.7,0-1.4,0-2.1
	c0-0.4-0.2-0.6-0.5-0.8c-0.2-0.1-0.5-0.1-0.7-0.1c-4.2,0-8.4,0-12.7,0s-8.4,0-12.7,0c-0.2,0-0.3,0-0.5,0c-0.5,0.1-0.7,0.3-0.7,0.9
	c0,2.2,0,4.5,0,6.7c0,1.1,0.2,2.2,0.5,3.2c0,0.1,0.1,0.2,0.2,0.3c4.9,3.6,10.2,6.3,16.1,8c0.1,0,0.2,0,0.4,0
	c0.9-0.2,1.9-0.4,2.8-0.7c0.9-0.3,1.7-0.6,2.5-1.1c1.7-1.1,3-2.7,4-4.4c0.1-0.2,0.2-0.2,0.3-0.2c0.7,0,1.4,0,2.1,0
	c0.5,0,0.9,0,1.4,0C47.6,36.8,49.4,34.1,48.8,31.3z M46.9,32.7c-0.1,1.4-1.3,2.5-2.8,2.5c-0.7,0-1.5,0-2.2,0c-0.1,0-0.2,0-0.1-0.2
	c0.4-1.3,0.6-2.7,0.6-3.8c0-0.6,0-1.1,0-1.5c0-0.1,0-0.2,0.1-0.2c0.7,0,1.5-0.1,2.2,0.1C46.2,29.8,47.1,31.1,46.9,32.7z"/>
<path fill="#24FC89" d="M1.2,22c0.4,0.6,0.7,1.2,1.1,1.8c7.2,10.4,16.8,17.4,29,20.8c2.4,0.7,4.9,1.1,7.5,1.4
	c3.3,0.4,6.6,0.5,9.9,0.3c4.2-0.2,8.3-0.8,12.4-1.8c0,0,0,0,0.1,0c-0.3,0.1-0.5,0.2-0.8,0.4c-0.3,0.1-0.5,0.2-0.8,0.3
	c-3.9,1.6-8,2.7-12.2,3.4c-3.2,0.5-6.5,0.8-9.7,0.7c-10.9-0.4-20.1-4.5-27.4-12.7c-3.5-3.9-6.1-8.2-8.3-12.9
	C1.6,23.2,1.4,22.6,1.2,22C1.2,22.1,1.2,22.1,1.2,22z"/>
<path fill="#24FC89" d="M38.9,0c-0.7,0.6-1.3,1.1-1.9,1.8c-0.9,1.1-1.6,2.3-1.8,3.7c-0.2,1.2,0,2.5,0.3,3.7c0.4,1.5,1.1,2.9,1.8,4.2
	c0.5,0.9,0.9,1.8,1,2.8c0.3,1.8-0.3,3.3-1.9,4.3c-1.1,0.7-2.3,1.1-3.6,1.3c-0.2,0-0.4,0.1-0.6,0.1c0,0,0.1-0.1,0.1-0.1
	c1.6-1.1,2.2-2.7,1.6-4.6c-0.2-0.9-0.6-1.7-1.2-2.4c-1-1.3-1.8-2.8-2.2-4.4c-0.7-2.7,0-5,2-7c1.4-1.3,3.1-2.2,4.8-2.9
	C37.9,0.3,38.4,0.1,38.9,0z"/>
<path fill="#24FC89" d="M30,21.8c0.2-0.3,0.4-0.7,0.5-1.1c0.1-0.6-0.1-1.2-0.4-1.8c-0.3-0.5-0.7-0.9-1.2-1.2c-0.7-0.5-1.3-1-1.8-1.6
	c-0.7-0.8-1.1-1.8-1.1-2.9c0-0.6,0.1-1.1,0.4-1.6c0.6-1.5,1.7-2.5,3-3.5c-0.1,0.2-0.2,0.3-0.3,0.5c-1.1,2-1,3.8,0.4,5.6
	c0.5,0.7,1.1,1.3,1.8,1.9c0.5,0.4,0.9,0.9,1.1,1.4c0.5,0.9,0.4,1.8-0.2,2.6C31.6,20.9,30.9,21.4,30,21.8z"/>
<path fill="#24FC89" d="M0.2,26.3c1,2.6,2.2,5,3.8,7.3C9.4,41.6,16.7,47,26,49.9c0.1,0,0.1,0,0.2,0.1c-0.4,0-0.8-0.1-1.1-0.2
	c-5.8-1.3-11-3.9-15.4-7.9c-4.1-3.7-6.9-8.2-8.7-13.3C0.6,27.8,0.4,27.1,0.2,26.3C0.1,26.2,0.2,26.2,0.2,26.3z"/>
<path fill="#24FC89" d="M0.2,26.3C0.2,26.3,0.2,26.3,0.2,26.3C0.1,26.1,0,25.9,0,25.7C0.1,25.9,0.2,26.1,0.2,26.3z"/>
</svg>
