<svg version="1.2" baseProfile="tiny" xmlns="http://www.w3.org/2000/svg" viewBox="0 0 61.1 50"><path fill="#24FC89" d="M48.8 31.3c-.4-1.9-2.1-3.4-4.1-3.6-.7-.1-1.4 0-2.1 0-.2 0-.2 0-.2-.2v-2.1c0-.4-.2-.6-.5-.8-.2-.1-.5-.1-.7-.1H15.3c-.5.1-.7.3-.7.9v6.7c0 1.1.2 2.2.5 3.2 0 .1.1.2.2.3 4.9 3.6 10.2 6.3 16.1 8h.4c.9-.2 1.9-.4 2.8-.7.9-.3 1.7-.6 2.5-1.1 1.7-1.1 3-2.7 4-4.4.1-.2.2-.2.3-.2h3.5c2.7-.4 4.5-3.1 3.9-5.9zm-1.9 1.4c-.1 1.4-1.3 2.5-2.8 2.5h-2.2c-.1 0-.2 0-.1-.2.4-1.3.6-2.7.6-3.8v-1.5c0-.1 0-.2.1-.2.7 0 1.5-.1 2.2.1 1.5.2 2.4 1.5 2.2 3.1z"/><path fill="#24FC89" d="M1.2 22c.4.6.7 1.2 1.1 1.8 7.2 10.4 16.8 17.4 29 20.8 2.4.7 4.9 1.1 7.5 1.4 3.3.4 6.6.5 9.9.3 4.2-.2 8.3-.8 12.4-1.8h.1c-.3.1-.5.2-.8.4-.3.1-.5.2-.8.3-3.9 1.6-8 2.7-12.2 3.4-3.2.5-6.5.8-9.7.7-10.9-.4-20.1-4.5-27.4-12.7-3.5-3.9-6.1-8.2-8.3-12.9-.4-.5-.6-1.1-.8-1.7 0 .1 0 .1 0 0zM38.9 0c-.7.6-1.3 1.1-1.9 1.8-.9 1.1-1.6 2.3-1.8 3.7-.2 1.2 0 2.5.3 3.7.4 1.5 1.1 2.9 1.8 4.2.5.9.9 1.8 1 2.8.3 1.8-.3 3.3-1.9 4.3-1.1.7-2.3 1.1-3.6 1.3-.2 0-.4.1-.6.1l.1-.1c1.6-1.1 2.2-2.7 1.6-4.6-.2-.9-.6-1.7-1.2-2.4-1-1.3-1.8-2.8-2.2-4.4-.7-2.7 0-5 2-7 1.4-1.3 3.1-2.2 4.8-2.9.6-.2 1.1-.4 1.6-.5z"/><path fill="#24FC89" d="M30 21.8c.2-.3.4-.7.5-1.1.1-.6-.1-1.2-.4-1.8-.3-.5-.7-.9-1.2-1.2-.7-.5-1.3-1-1.8-1.6-.7-.8-1.1-1.8-1.1-2.9 0-.6.1-1.1.4-1.6.6-1.5 1.7-2.5 3-3.5-.1.2-.2.3-.3.5-1.1 2-1 3.8.4 5.6.5.7 1.1 1.3 1.8 1.9.5.4.9.9 1.1 1.4.5.9.4 1.8-.2 2.6-.6.8-1.3 1.3-2.2 1.7zM.2 26.3c1 2.6 2.2 5 3.8 7.3 5.4 8 12.7 13.4 22 16.3.1 0 .1 0 .2.1-.4 0-.8-.1-1.1-.2-5.8-1.3-11-3.9-15.4-7.9-4.1-3.7-6.9-8.2-8.7-13.3-.4-.8-.6-1.5-.8-2.3-.1-.1 0-.1 0 0z"/><path fill="#24FC89" d="M.2 26.3c-.1-.2-.2-.4-.2-.6.1.2.2.4.2.6z"/></svg>