<svg id="Слой_1" xmlns="http://www.w3.org/2000/svg" width="215.4" height="237.2" viewBox="0 0 215.4 237.2"><style>.st0{fill:none}.st1{fill:#24fc89}.st2{fill:none;stroke:#24fc89;stroke-width:0;stroke-linecap:round;stroke-linejoin:round}</style><path class="st0" d="M45.5 191.1l-1.5 1.2c-2.1 1.6-3.4 3.8-4 6.8-.1.7-.1 1 0 1.1 1.2 2.4 2.7 4.7 5.2 6.2.7.4 1.3.7 2.1.9-.9-6-.2-8.7.9-11.7l-2.7-4.5zm70.2 29.4l.1 5.4c3.5.7 5.6-.4 8.3-1.9.1-.1.2-.4.2-.7v-7.5c0-.3 0-.6-.1-1-2.1 3.1-5.2 4.5-8.5 5.7zm-71.1-32.1l-1.7-5.1c-3.5.4-5.3 2-7.4 4.2-.1.1-.1.5 0 .7.6 2.1 1.2 4.4 2.1 7.2l.3.9c1.3-3.5 3.9-5.8 6.7-7.9zm51.5-53c4.2 0 7.6-3.4 7.7-7.6 0-2-.7-4-2.2-5.5-1.4-1.5-3.3-2.3-5.4-2.3h-.1c-4.2 0-7.6 3.4-7.7 7.6-.1 4.2 3.3 7.7 7.6 7.8h.1zm-2.8-7.7c0-1.6 1.3-2.8 2.9-2.8 1.6 0 2.8 1.3 2.8 2.9 0 1.6-1.3 2.8-2.9 2.8-1.6 0-2.8-1.3-2.8-2.9zm-52.4 45.9c-3.4.6-5.9 1.6-7.9 3.5.1.4.1.7.2 1.1.2 1.1.4 2.1.6 3.1.1.5.2.9.3 1.4.1.7.2 1.4.4 2 2-2.1 4.6-3.4 7.7-4.1l-1.3-7zm16.3 20.1l-1.7 2c.9 2.4 2.4 4.5 4.7 6.2.4.3.9.5 1.3.6.2 0 .5 0 .5-.1.5-.5.9-1.1 1.3-1.7 0-2 0-4.1.1-6.1v-.3l-.6-.1-5.6-.5zm-4.1 3.4h-2.7c-1.1 3.2-1.2 6.6-.4 10 .1.4.3.6.8.6 2.1-.1 4.4-.3 6.5-1.3.8-.4 1.5-.9 2.3-1.4.1 0 .1-.1.2-.1-3.1-2.1-4.2-3.2-6.7-7.8zm1.6-157c-.8-.1-1.5.1-1.9.8-1 1.6-.2 5.2 2.9 8.8 0-1.5-.1-2.9-.2-4.4-.3-1.4-.6-3.1-.8-5.2zM40.2 168.2c-1.3.1-2.4.5-3.6 1h-.1c-1.1.4-2.2.6-3.3.8-.3.1-.6.1-.9.2 0 1.1.1 2.2.3 3.5 0 .1 0 .3.1.4 2.5-1.8 5.2-2.5 7.9-3.1l-.4-2.8zm67.4-127.4c-.5-.8-1.5-.9-2.4-.7 0 1.9-.1 3.8-.1 5.7 0 1.1-.1 2.3-.1 3.4 2.8-3.3 3.6-6.9 2.6-8.4zM85.1 80.4c-1.1.6-3.1.9-5.2.9-2 0-4.1-.3-5.2-.9-5.7-3-9.7-5.7-12.5-8.4l-.9 11.1c.5 1.3 4.3 10.1 18.1 10.1 16.7 0 20-9.9 20.3-11l-1.2-11c-3.1 2.9-7.4 5.9-13.4 9.2zm-11.3 94c3.7.3 7-1.8 7.9-4.9L67 167.8c.3 3.4 3.3 6.4 6.8 6.6zm-42.7-10.7c-1 1-.2 1.9-.1 2.7.1.8.3 1.6.5 2.4.4-.1.8-.2 1.2-.2-.6-1.7-.5-3.4-1.6-4.9zm6.6 3.6c.4-.1.9-.2 1.3-.3-.2-.7-.3-1.4-.5-2-.3-.7.1-1.8-1.2-2.2 0 .4-.2.8-.1 1.1.1.9.4 1.8.5 2.6v.8z"/><path class="st0" d="M75.4 79.1c1.9 1 7.2 1 9 0 17.8-9.8 19.1-16.2 19.1-24.8 0-2.8.1-5.7.1-8.5.3-14.2.7-27.6-8.6-29.6-2.5-.5-5.5.2-8.4.9-2.2.5-4.4 1.1-6.3 1.1-1.9 0-4.2-.5-6.6-1-2.5-.5-5-1.1-7.2-1.1-.7 0-1.3.1-1.9.2-8.8 1.9-8.3 13.9-7.7 27.7.1 3.4.3 7 .3 10.5 0 9.2.9 15.5 18.2 24.6zM95.5 44c-.1.2-.4.3-.6.3-.2 0-.3 0-.4-.1-.6-.5-1.3-.7-2-.9.4.4.6.9.6 1.4 0 1.1-.9 2-2 2s-2-.9-2-2c0-.6.3-1.2.7-1.5-1.2.1-2.1.5-2.5.9-.3.3-.8.3-1.1 0-.3-.3-.3-.8 0-1.1 1.3-1.4 6-2.3 9.1 0 .4.2.5.6.2 1zm-9.8-8.3c1.3-.8 2.7-.9 3.6-.9 4.1 0 8.5 1.6 8.7 1.7.4.1.6.6.4 1-.1.3-.4.5-.7.5h-.3s-4.3-1.6-8.1-1.6c-.8 0-1.8.1-2.8.7-.3.2-.8.1-1-.2-.2-.5-.1-1 .2-1.2zM72.9 44c-.1.2-.4.3-.6.3-.2 0-.3 0-.4-.1-.6-.5-1.3-.7-2-.9.4.4.6.9.6 1.4 0 1.1-.9 2-2 2s-2-.9-2-2c0-.6.3-1.2.7-1.5-1.2 0-2.2.4-2.5.8-.3.3-.8.3-1.1 0-.3-.3-.3-.8 0-1.1 1.3-1.4 6-2.3 9.1 0 .3.3.4.7.2 1.1zm7.6 26h-2.7c-.4 0-.8-.3-.8-.8s.3-.8.8-.8h2.7c.4 0 .8.3.8.8s-.4.8-.8.8zm3.1-5.4c.3.3.3.7.1 1-.1.1-1.2 1.3-4.5 1.3s-4.3-1.1-4.5-1.3c-.3-.3-.2-.8.1-1.1.3-.2.8-.2 1 .1 0 0 .8.8 3.3.8s3.3-.8 3.3-.8c.4-.3.9-.3 1.2 0zM61.3 37.5c-.1-.4 0-.8.4-1 .2-.1 4.6-1.7 8.7-1.7 1.4 0 3.4.2 5 2.1 2.6 3.2 3.1 9.8 1.5 19.8h5.2c.4 0 .8.3.8.8s-.3.8-.8.8H76c-.2 0-.4-.1-.6-.3-.1-.2-.2-.4-.2-.6 2.2-12.5.7-17.4-1-19.4-1.2-1.4-2.7-1.6-3.8-1.6-3.8 0-8.1 1.6-8.1 1.6-.4 0-.9-.2-1-.5zm3.5 165.6v2c0 2.9 1.4 4.8 4.1 5.6 1.4.5 2.7.8 4 .9 7.2 1 14.5 1.9 21.3 2.8 1 .1 2 .2 3.3.2h.1c3.6 0 5.7-1.7 6.5-5.1.3-1.4.7-2.9 1.1-4.2.5-1.9 1-3.8 1.4-5.7l-41.5-5c-.4 2.9-.4 5.7-.3 8.5zm17.9-1.5c.2-1.2 1.4-2 2.7-1.8 1.2.2 1.9 1.2 1.7 2.4-.2 1.2-1.2 2-2.4 1.8-1.4-.2-2.3-1.3-2-2.4zm93.5-121.7c-3.6-11.1-12.7-9.5-19.9-20.5-10.3 3.5-15 10.9-16.4 17 0 1.2.2 2.4.3 3.6 2.1 12.9 6.9 23 12.5 26.1 2.2 1.2 4.4 1.4 6.6.5 10.9-4.3 16.3-7.4 18.3-17.1 5.3-5.8 2.1-14.5-1.4-9.6zm-24.4 1.4c-.1.2-.4.3-.6.3-.2 0-.3 0-.4-.1-.3-.3-.7-.4-1.1-.5.1.2.2.5.2.7 0 .8-.6 1.4-1.4 1.4-.8 0-1.4-.6-1.4-1.4 0-.3.1-.6.3-.9-.7.1-1.2.3-1.4.5-.3.3-.8.3-1.1 0-.3-.3-.3-.8 0-1.1 1-1.1 4.5-1.8 6.9 0 .2.3.3.8 0 1.1zm-1.9-5.5c-2.7 0-5.8 1.2-5.8 1.2-.4.1-.8 0-1-.4-.1-.4 0-.8.4-1 .1-.1 3.4-1.3 6.4-1.3 1 0 2.6.2 3.8 1.6 1.9 2.3 2.3 7.1 1.1 14.3h3.6c.4 0 .8.3.8.8s-.3.8-.8.8H154c-.2 0-.4-.1-.6-.3s-.2-.4-.2-.6c1.6-9 .5-12.5-.7-13.9-.8-1-1.8-1.2-2.6-1.2zm7.3 24.6h-1.9c-.4 0-.8-.3-.8-.8s.3-.8.8-.8h1.9c.4 0 .8.3.8.8s-.4.8-.8.8zm2.4-3.3c-.1.2-1 1-3.4 1-2.5 0-3.3-.9-3.4-1.1-.3-.3-.2-.8.1-1.1.3-.2.8-.2 1 .1 0 0 .6.5 2.2.5 1.7 0 2.3-.5 2.3-.5.3-.3.8-.3 1 0 .5.3.5.8.2 1.1zm8.7-15.8c-.1.2-.4.3-.6.3-.2 0-.3 0-.4-.1-.3-.3-.7-.4-1.1-.5.1.2.2.5.2.7 0 .8-.6 1.4-1.4 1.4s-1.4-.6-1.4-1.4c0-.3.1-.6.3-.9-.7.1-1.2.3-1.4.5-.3.3-.8.3-1.1 0-.3-.3-.3-.8 0-1.1 1-1.1 4.5-1.8 6.9 0 .2.3.2.8 0 1.1zm2.1-4.7c-.1.3-.4.5-.7.5h-.3s-3.1-1.2-5.8-1.2c-.6 0-1.3.1-1.9.5-.3.2-.8.1-1-.2-.2-.3-.1-.8.2-1 1-.6 2.1-.7 2.8-.7 3 0 6.2 1.2 6.4 1.3.3-.1.5.4.3.8zM107 178.8c3 .2 6.1-1.9 7-4.5-3.5-.5-7-.9-10.4-1.3-1.3-.1-2.7-.3-4-.4.5 3.6 3.3 5.9 7.4 6.2zm5.8-15.8c-2.4-1.9-5.2-2.3-8.2-1.1-2.3 1-3.7 2.7-4.3 5.5l15.2 2c.2-2.6-.7-4.8-2.7-6.4z"/><path class="st0" d="M66.7 152.8c-6.8 5.8-10.7 13.7-10.9 22.3-.1 3.5.4 6.9 1.6 10.3l63.1 8.2c3.5-4.9 5.4-10.5 5.6-16.4.3-8.5-3.2-16.6-9.6-22.9-6.5-6.2-15.2-9.8-24.6-10.1-9.5-.3-18.4 2.8-25.2 8.6zm7.8 23.1h-.8c-4.7-.3-8.5-4.5-8.2-9 0-.2.1-.4.3-.5.2-.1.4-.2.6-.2l16.4 1.9c.2 0 .4.1.5.3.1.2.2.4.1.6-.7 4.1-4.4 6.9-8.9 6.9zm9.9-10.2c-.1.3-.4.6-.7.6h-.1l-16.5-2.2c-.4-.1-.7-.4-.6-.8.2-2.4 1.4-4.6 3.4-6 2.1-1.5 4.7-2.1 7.3-1.6 2.4.5 4.6 2 6 4.1 1.2 1.8 1.6 3.9 1.2 5.9zm19.7-5.1c3.5-1.4 6.9-1 9.7 1.3 2.5 2.1 3.6 5 3.2 8.5 0 .2-.1.4-.3.5-.1.1-.3.2-.5.2h-.1l-16.7-2.2c-.2 0-.4-.1-.5-.3s-.2-.4-.1-.6c.6-3.8 2.4-6.2 5.3-7.4zm-5.9 10.5c.2-.2.4-.2.6-.2 1.7.2 3.3.4 5 .5 3.7.4 7.5.8 11.3 1.4.2 0 .4.1.5.3s.2.4.1.6c-.6 3.6-4.5 6.5-8.3 6.5h-.5c-5.2-.3-8.7-3.7-8.9-8.6 0-.1.1-.3.2-.5z"/><path class="st0" d="M76.9 157.1c-2.1-.4-4.4.1-6.1 1.4-1.4 1.1-2.4 2.6-2.7 4.3l15 2c.1-1.4-.3-2.9-1.1-4.2-1.3-1.8-3.1-3.1-5.1-3.5z"/><path class="st1" d="M59.9 81.8l-.1 1.4v.3c0 .1 3.9 11.3 19.5 11.3 18.8 0 21.8-12.2 21.8-12.3v-.2l-.1-1c7.1.4 14.4 1.1 21.9 2.1 2.4.2 7.1 1.2 12.6 4.9.3.2.8.1 1-.2.2-.3.1-.8-.2-1-4.2-2.9-9-4.7-13.3-5.1-7.7-1-15.1-1.6-22.2-2.1l-1-9.2c0-.2-.1-.3-.2-.4 4.4-4.8 5.4-9.5 5.4-15.7v-2.8c.1 0 .1-.1.2-.1 3.7-3.9 5.3-8.8 3.7-11.3-.4-.6-1.4-1.7-3.6-1.4v-1.2c.3-4.6.4-10.3.2-16.5-.5-15.4-8.8-15.4-8.8-15.4l4.5-3.4C68.7-5 54.8 5.4 54 21.2c-.4 6.8 0 12.8.5 17.3-1.8 0-2.6.9-3 1.5-1.6 2.5 0 7.4 3.7 11.3.1.1.3.2.5.2v2.7c0 6.3.5 11.4 5.3 16.5-.2.1-.3.3-.3.5l-.7 9.1c-9.2 1-17.5 2.5-24.9 4.7C11 92.8 7.9 109.7 5.9 120.8c-.2.9-.3 1.7-.5 2.6L0 159.8c-.1.4.2.8.6.9h.1c.4 0 .7-.3.7-.6l5.4-36.3c.2-.8.3-1.7.5-2.6 1.9-10.8 4.9-27.1 28.1-34.7 7.4-2.2 15.5-3.8 24.5-4.7zm45.2-36c0-1.9.1-3.8.1-5.7.9-.2 1.9-.1 2.4.7 1 1.5.2 5-2.6 8.4.1-1.1.1-2.2.1-3.4zm-52.3-5c.4-.7 1.2-.8 1.9-.8.3 2.1.6 3.8.8 5.2.1 1.5.1 2.9.2 4.4-3.1-3.5-3.9-7.2-2.9-8.8zm46.8 41.4c-.3 1.2-3.6 11-20.3 11-13.7 0-17.6-8.8-18.1-10.1l1-11.1c2.8 2.7 6.8 5.4 12.5 8.4 1.2.6 3.2.9 5.2.9s4.1-.3 5.2-.9c6-3.3 10.3-6.3 13.3-9.1l1.2 10.9zM57.2 54.3c0-3.5-.1-7-.3-10.5-.6-13.8-1.1-25.7 7.7-27.7.6-.1 1.2-.2 1.9-.2 2.2 0 4.7.6 7.2 1.1 2.4.5 4.7 1 6.6 1 1.9 0 4.1-.5 6.3-1.1 2.9-.7 5.9-1.4 8.4-.9 9.2 2 8.9 15.4 8.6 29.6-.1 2.8-.1 5.7-.1 8.5 0 8.6-1.3 15-19.1 24.8-1.8 1-7.1 1-9 0C58.1 70 57.2 63.7 57.2 54.3z"/><path class="st1" d="M63.6 42.9c-.3.3-.3.8 0 1.1.3.3.8.3 1.1 0 .3-.3 1.3-.7 2.5-.9-.4.4-.7.9-.7 1.5 0 1.1.9 2 2 2s2-.9 2-2c0-.5-.2-1-.6-1.4.7.2 1.4.5 2 .9.1.1.3.1.4.1.2 0 .5-.1.6-.3.2-.3.2-.8-.2-1-3.1-2.3-7.8-1.3-9.1 0zm22.7 0c-.3.3-.3.8 0 1.1.3.3.8.3 1.1 0 .3-.3 1.3-.7 2.5-.9-.4.4-.7.9-.7 1.5 0 1.1.9 2 2 2s2-.9 2-2c0-.5-.2-1-.6-1.4.7.2 1.4.5 2 .9.1.1.3.1.4.1.2 0 .5-.1.6-.3.2-.3.2-.8-.2-1-3.2-2.3-7.9-1.3-9.1 0zm-7.1 22.5c-2.5 0-3.3-.7-3.3-.8-.3-.3-.7-.4-1-.1-.3.3-.4.7-.1 1.1.2.2 1.2 1.3 4.5 1.3s4.3-1.2 4.5-1.3c.3-.3.2-.8-.1-1-.3-.3-.8-.2-1.1.1-.1-.1-.9.7-3.4.7z"/><path class="st1" d="M74.2 37.9c1.7 2 3.2 7 1 19.4 0 .2 0 .4.2.6.1.2.4.3.6.3h6.1c.4 0 .8-.3.8-.8s-.3-.8-.8-.8h-5.2c1.7-10 1.2-16.6-1.5-19.8-1.6-1.9-3.6-2.1-5-2.1-4.1 0-8.5 1.6-8.7 1.7-.4.1-.6.6-.4 1 .1.4.6.6 1 .4 0 0 4.3-1.6 8.1-1.6 1.1.1 2.6.3 3.8 1.7zm12.3-.9c1-.6 2-.7 2.8-.7 3.8 0 8.1 1.6 8.1 1.6h.3c.3 0 .6-.2.7-.5.1-.4 0-.8-.4-1-.2-.1-4.6-1.7-8.7-1.7-.9 0-2.3.1-3.6.9-.3.2-.4.7-.2 1 .2.5.7.6 1 .4zm-6 31.5h-2.7c-.4 0-.8.3-.8.8s.3.8.8.8h2.7c.4 0 .8-.3.8-.8s-.4-.8-.8-.8zm132.3 80.7c-4-20.3-15.6-23.5-29.2-25.5-4.4-.6-9.3-5.5-9.8-9.7-.4-4-.2-9.1 0-13.2 2.6-2.5 4.3-5.5 5.4-9.5 5.3-5.6 8.6-15.9 5-30.4 5.6-4.3 7.2-13-2.7-18.7-7-4-10.3-.8-11.8 2.8-4.3-1.2-9-.9-13.6 1.5C146 45.2 139 53.7 138 70.8c-.5 3.1-.4 6.2.1 9.4 1.9 11.5 5.7 20.6 10.6 25.3.1 3.2.2 7 .2 8.6.1 6.3-8.1 9-13 10.1-1.9.4-3.5.7-5 .9-1.3.2-2.4.4-3.3.6-16.4 4.3-18.5 13.6-19.9 19.8-.1.3-.1.6-.2.8-2.8-1.3-5.7-2.3-8.8-2.9l.6-7.2c3.4-1.3 5.8-4.6 5.9-8.4 0-2.5-.9-4.8-2.6-6.5-1.7-1.8-4-2.8-6.4-2.8H96c-5 0-9.1 4-9.2 9-.1 3.4 1.7 6.4 4.4 8l-.6 7.1c-9.4 0-18.3 3.1-25.1 9-7.1 6.1-11.2 14.4-11.4 23.3-.1 3.4.4 6.8 1.4 10.1l-2.6-.3 3 8-2 2.3c-.1.2-.2.4-.1.6-.1-.1-.3-.1-.4-.1h-3.9c.1-.2 0-.4-.1-.6l-3.2-5.5c-.1-.1-.2-.2-.4-.3.2-.2.3-.5.2-.8l-2-6.2c-.1-.3-.3-.5-.6-.5l.2-.2c.1-.2.2-.4.1-.6l-1.7-8.4c-.1-.3-.2-.5-.5-.5.2-.2.3-.4.3-.7l-.4-4.1c0-.1-.1-.3-.2-.4.1 0 .2-.1.3-.1 1.6-.5 2.4-1.5 2.2-3.2-.2-1.6-.6-3.2-1.2-4.7-.9-2.3-2.3-3-4.7-2.5h-.2l2.6-20.8c.1-.4-.2-.8-.7-.8-.4-.1-.8.2-.8.7L36.3 157c-2 .5-3.9 1-5.9 1.6-1.2.4-2.3 1-3.4 1.6-1.1.6-1.6 1.7-1.4 2.9.2 1.4.5 2.7.9 4 .6 1.9 2.2 2.6 4.2 2.1-.1.1-.1.2-.1.3-.1 1.5.1 2.9.3 4.4.1.5.2 1.1.2 1.7 0 .3.2.5.5.6h.1l-.2.2c-.2.2-.3.4-.2.7l.3 1.5c.2 1.1.4 2.1.7 3.2.1.4.2.8.2 1.3.2 1.1.4 2.3 1.1 3.5.1.2.3.4.6.4-.3.5-.3 1.3-.2 1.8.6 2.1 1.3 4.4 2.1 7.2.2.6.4 1.2.7 1.7.1.2.2.5.3.7.1.3.3.4.6.5h.7v.1c-.2.9-.1 1.5.1 2 1.3 2.6 3 5.1 5.8 6.8 1 .6 2.2 1.2 3.6 1.2h.1c.2 0 .4-.1.6-.3.1-.1.1-.2.1-.3.4.6 1.1 1 1.9 1h.8c-.7 3.1-2.7 13.1-3.3 17.6-.1.4.2.8.6.8h.1c.4 0 .7-.3.7-.7.6-4.6 2.9-15.4 3.4-17.9 1.6-.2 3.3-.5 4.9-1.3.9-.4 1.6-1 2.5-1.5.4-.3.7-.5 1.1-.8.2-.1.3-.4.3-.6 0-.3-.1-.5-.3-.6-.1 0-.1-.1-.2-.1h.3c.5 0 1.1-.2 1.5-.6l.2-.2v1.8c0 3.5 1.8 6 5.1 7.1 1.5.5 2.9.8 4.3 1 7.2 1 14.5 1.9 21.3 2.8 1 .1 2.2.2 3.5.2h.1c4.2 0 7-2.2 7.9-6.3.3-1.4.7-2.8 1.1-4.2.5-1.9 1-3.9 1.4-5.9l9.3 1.1c.1.2.2.3.4.4h.1c1 .3 1.8 1 2.5 1.8 2 2.1 2.7 4.8 3.2 7.4 0 0 0 .3-.3 1-1.4 2.7-3.3 4.4-5.7 5.4-.6.2-1.2.5-1.8.7h-.1l-1.3-5.4c-.1-.3-.2-.4-.5-.5-.1-.1-.3-.1-.4 0-.4.1-.7.5-.6.9l1.5 6.2c0 .2.1.3.3.4-.3.1-.4.4-.4.7l.2 6.5c0 .3.2.6.5.7-.1 0-.2.1-.2.1-.2.1-.3.3-.3.5l-.8 8.5c0 .4.3.8.7.8h.1c.4 0 .7-.3.7-.7v-.2l.7-7.6c3.2.2 6-.3 8.6-1.8 0 .7-.1 1.4-.2 2.1-.1.5-.1.9-.1 1.4-.1 1-.2 2.1-.3 3.2 0 .5-.1 1-.1 1.5v.2c0 .3.3.6.7.7.4 0 .8-.3.8-.7 0-.5.1-1 .1-1.5.1-1.1.2-2.2.3-3.2 0-.4.1-.9.1-1.3.1-1.1.3-2.3 0-3.7-.1-.2-.2-.4-.5-.5.4-.4.6-1.1.7-1.7v-7.5c0-.6-.1-1.2-.2-1.8 0-.3-.1-.5-.1-.8 0-.3-.2-.5-.5-.6l-.4-.2c-.1 0-.2-.1-.3-.1 0 0 0-.1.1-.1.4-.8.6-1.4.5-2-.5-2.8-1.4-5.8-3.6-8.1-.3-.3-.6-.6-1-.9l3.9-7.2-2.3-.3c3.4-5 5.2-10.6 5.4-16.5.3-8.9-3.3-17.5-10.1-24-2.5-2.4-5.3-4.5-8.4-6.1l.3-1.2c1.3-5.8 3.3-14.6 18.8-18.7.9-.2 2-.4 3.2-.6 1.5-.3 3.1-.5 5-1 9.3-2 14.3-6.1 14.2-11.5 0-1.4-.1-4.4-.2-7.2.4.3.9.6 1.4.9 1.6.9 3.2 1.3 4.8 1.3 1.2 0 2.3-.2 3.5-.7 5.2-2.1 9.2-4 12.2-6.3-.2 3.9-.3 8.3.1 12 .5 4.9 6 10.3 11.1 11.1 13.5 1.9 24.1 4.9 27.9 24.3 1.1 4.8 2.6 23.6 2.6 23.8 0 .4.4.7.8.7s.7-.4.7-.8c.1-.9-1.3-19.1-2.4-24.1zM37.2 162.7c1.3.4 1 1.5 1.2 2.2.2.6.4 1.3.5 2-.5.1-.9.2-1.3.3 0-.2 0-.5-.1-.8-.1-.9-.4-1.8-.5-2.6.1-.3.2-.7.2-1.1zm-5.8 6.1c-.2-.8-.4-1.6-.5-2.4-.1-.8-.9-1.6.1-2.7 1.1 1.5 1 3.2 1.6 4.8-.3.1-.8.2-1.2.3zm1.2 5.2c0-.1 0-.3-.1-.4-.2-1.3-.4-2.4-.3-3.5.3-.1.6-.1.9-.2 1.1-.2 2.3-.4 3.3-.8h.1c1.2-.4 2.3-.8 3.6-1l.3 2.7c-2.6.7-5.3 1.5-7.8 3.2zm1.5 8.7c-.1-.5-.2-.9-.3-1.4-.2-1-.4-2-.6-3.1-.1-.3-.1-.7-.2-1.1 2-1.8 4.5-2.9 7.9-3.5l1.4 6.9c-3.1.7-5.7 2.1-7.7 4.1-.3-.6-.4-1.2-.5-1.9zm3.9 13.5l-.3-.9c-.9-2.8-1.6-5.1-2.1-7.2-.1-.3 0-.6 0-.7 2.1-2.2 3.9-3.8 7.4-4.2l1.7 5.1c-2.9 2.2-5.5 4.5-6.7 7.9zm9.2 11c-.7-.2-1.4-.5-2.1-.9-2.5-1.4-4-3.8-5.2-6.2 0-.1-.1-.3 0-1.1.6-3 1.9-5.2 4-6.8l1.5-1.2h.1l2.6 4.5c-1.1 3.1-1.8 5.7-.9 11.7zm77.1 8.7v7.5c0 .3-.2.6-.2.7-2.6 1.5-4.8 2.6-8.3 1.9l-.1-5.4c3.3-1.2 6.5-2.6 8.6-5.6v.9zm-35.9-88.3c.1-4.2 3.5-7.6 7.7-7.6h.1c2.1 0 4 .9 5.4 2.3 1.4 1.5 2.2 3.4 2.2 5.5-.1 4.2-3.5 7.6-7.7 7.6H96c-4.2 0-7.6-3.5-7.6-7.8zM59.5 205c-.8.5-1.5 1-2.3 1.4-2.1 1-4.3 1.2-6.5 1.3-.6 0-.7-.2-.8-.6-.9-3.5-.8-6.9.4-10H53c2.5 4.6 3.6 5.7 6.7 7.7 0 .1-.1.1-.2.2zm3.9-10.3c-.1 2-.1 4.1-.1 6.1-.4.6-.8 1.2-1.3 1.7-.1.1-.4.1-.5.1-.4-.1-.9-.3-1.3-.6-2.2-1.7-3.8-3.8-4.7-6.2l1.7-2 5.6.7.6.1v.1zm41.6 10.7c-.4 1.4-.7 2.8-1.1 4.2-.8 3.4-2.9 5.1-6.5 5.1h-.1c-1.2 0-2.3-.1-3.3-.2-6.8-.9-14.1-1.8-21.3-2.8-1.3-.2-2.6-.5-4-.9-2.7-.9-4.1-2.8-4.1-5.6v-2c0-2.8 0-5.6.1-8.4l41.5 5c-.2 1.8-.7 3.7-1.2 5.6zm11.4-51.1c6.4 6.2 9.8 14.3 9.6 22.9-.2 5.9-2.1 11.5-5.6 16.4l-63.1-8.2c-1.1-3.3-1.7-6.8-1.6-10.3.3-8.5 4.1-16.4 10.9-22.3 6.8-5.8 15.8-8.9 25.1-8.6 9.5.3 18.2 3.9 24.7 10.1zm42.9-47.7c-2.2.9-4.4.7-6.6-.5-5.6-3.2-10.4-13.2-12.5-26.1-.2-1.2-.3-2.4-.3-3.6 1.4-6 6-13.4 16.4-17 7.2 11.1 16.3 9.4 19.9 20.5 3.6-5 6.8 3.8 1.4 9.6-2 9.7-7.4 12.8-18.3 17.1z"/><path class="st1" d="M144.8 80.3c-.3.3-.3.8 0 1.1.3.3.8.3 1.1 0 .2-.2.7-.4 1.4-.5-.2.2-.3.5-.3.9 0 .8.6 1.4 1.4 1.4.8 0 1.4-.6 1.4-1.4 0-.3-.1-.5-.2-.7.4.1.8.3 1.1.5.1.1.3.1.4.1.2 0 .5-.1.6-.3.2-.3.2-.8-.2-1-2.2-1.9-5.7-1.1-6.7-.1zm16.4 0c-.3.3-.3.8 0 1.1.3.3.8.3 1.1 0 .2-.2.7-.4 1.4-.5-.2.2-.3.5-.3.9 0 .8.6 1.4 1.4 1.4s1.4-.6 1.4-1.4c0-.3-.1-.5-.2-.7.4.1.8.3 1.1.5.1.1.3.1.4.1.2 0 .5-.1.6-.3.2-.3.2-.8-.2-1-2.2-1.9-5.7-1.1-6.7-.1zm-2.7 15.8s-.6.5-2.3.5c-1.7 0-2.2-.5-2.2-.5-.3-.3-.7-.3-1-.1-.3.3-.4.7-.1 1.1.1.2.9 1.1 3.4 1.1 2.4 0 3.2-.9 3.4-1 .3-.3.2-.7-.1-1-.3-.4-.8-.4-1.1-.1z"/><path class="st1" d="M153.2 90.9c0 .2 0 .4.2.6s.4.3.6.3h4.4c.4 0 .8-.3.8-.8s-.3-.8-.8-.8h-3.6c1.2-7.2.8-12-1.1-14.3-1.2-1.5-2.7-1.6-3.8-1.6-3 0-6.2 1.2-6.4 1.3-.4.1-.6.6-.4 1 .1.4.6.6 1 .4 0 0 3.1-1.2 5.8-1.2.8 0 1.8.1 2.6 1.1 1.2 1.5 2.2 5 .7 14zM170 75.6c-.1-.1-3.4-1.3-6.4-1.3-.7 0-1.7.1-2.8.7-.3.2-.5.7-.2 1 .2.3.7.5 1 .2.7-.4 1.4-.5 1.9-.5 2.7 0 5.8 1.2 5.8 1.2h.3c.3 0 .6-.2.7-.5.3-.2.1-.7-.3-.8zm-12.8 23.3h-1.9c-.4 0-.8.3-.8.8s.3.8.8.8h1.9c.4 0 .8-.3.8-.8s-.4-.8-.8-.8zm28 31.3c-7.7 7.9-15.9 11.8-24.3 11.5-12.9-.3-22-10.4-22.1-10.5-.3-.3-.7-.3-1.1-.1s-.3.7-.1 1.1c.4.4 9.6 10.7 23.1 11h.7c8.6 0 16.9-4 24.7-12 .3-.3.3-.8 0-1.1-.2-.2-.6-.1-.9.1zM84.7 204c1.2.2 2.2-.5 2.4-1.8.2-1.3-.5-2.2-1.7-2.4-1.3-.2-2.5.6-2.7 1.8-.3 1.1.6 2.2 2 2.4zm14.7-35.2l16.7 2.2h.1c.2 0 .3-.1.5-.2s.3-.3.3-.5c.4-3.5-.7-6.4-3.2-8.5-2.8-2.3-6.2-2.7-9.7-1.3-3 1.2-4.7 3.7-5.4 7.4 0 .2 0 .4.1.6s.4.3.6.3zm5.3-6.9c3-1.2 5.8-.9 8.2 1.1 1.9 1.6 2.8 3.8 2.7 6.4l-15.2-2c.6-2.7 2-4.5 4.3-5.5zm2.2 18.4h.5c3.9 0 7.7-3 8.3-6.5 0-.2 0-.4-.1-.6s-.3-.3-.5-.3c-3.8-.6-7.6-1-11.3-1.4-1.7-.2-3.3-.4-5-.5-.2 0-.4 0-.6.2-.2.2-.2.4-.2.6.2 4.8 3.7 8.2 8.9 8.5zm-3.3-7.3c3.4.4 7 .7 10.4 1.3-.9 2.6-4 4.7-7 4.5-4.1-.3-6.9-2.6-7.4-6.2 1.3.1 2.7.2 4 .4zm-26.4-17.3c-2.6-.5-5.2.1-7.3 1.6-2 1.5-3.2 3.6-3.4 6 0 .4.2.8.6.8l16.5 2.2h.1c.3 0 .7-.2.7-.6.4-2 0-4.1-1.2-6-1.4-2.1-3.6-3.6-6-4zm5.8 9l-15-2c.3-1.7 1.3-3.2 2.7-4.3 1.7-1.3 4-1.8 6.1-1.4 2 .4 3.9 1.6 5 3.4 1 1.5 1.4 2.9 1.2 4.3zm-.3 3.4l-16.4-1.9c-.2 0-.4 0-.6.2-.2.1-.3.3-.3.5-.3 4.5 3.5 8.7 8.2 9h.8c4.5 0 8.2-2.9 8.9-7 0-.2 0-.4-.1-.6-.1-.1-.3-.2-.5-.2zm-8.9 6.3c-3.6-.3-6.6-3.3-6.8-6.6l14.7 1.7c-.9 3.1-4.1 5.2-7.9 4.9zm25.1-46.6c0-1.6-1.2-2.8-2.8-2.9-1.6 0-2.8 1.2-2.9 2.8 0 1.6 1.2 2.8 2.8 2.9 1.6 0 2.9-1.2 2.9-2.8zm-1.2-23.2l-.6 9.2c0 .4.3.8.7.8.4 0 .7-.3.7-.7l.6-9.2c0-.4-.3-.8-.7-.8-.3 0-.6.3-.7.7zm16.7 7.5l-8.1 6.3c-.3.3-.4.7-.1 1.1.1.2.4.3.6.3.2 0 .3-.1.5-.2l8.1-6.3c.3-.3.4-.7.1-1.1-.3-.3-.7-.3-1.1-.1zm-32.8-2.9c-.3.3-.3.7-.1 1.1l6.9 7.9c.1.2.4.3.6.3.2 0 .3-.1.5-.2.3-.3.3-.7.1-1.1l-6.9-7.9c-.3-.3-.8-.4-1.1-.1z"/></svg>