<svg version="1.2" baseProfile="tiny" xmlns="http://www.w3.org/2000/svg" viewBox="0 0 75 58"><path fill="#171717" d="M58.6 36.3c-.5-2.3-2.5-4-4.8-4.2-.8-.1-1.6 0-2.4 0-.2 0-.2-.1-.2-.2v-2.4c0-.4-.2-.7-.6-.9-.3-.1-.6-.1-.8-.1H19.9c-.6.1-.9.4-.9 1v7.8c0 1.3.2 2.5.5 3.7 0 .2.1.3.2.3 5.6 4.2 11.9 7.3 18.6 9.3.1 0 .3.1.4 0 1.1-.2 2.2-.5 3.2-.8s2-.7 2.9-1.2c2-1.3 3.4-3.1 4.6-5.1.1-.2.2-.2.4-.2h4.1c3.3-.7 5.4-3.8 4.7-7zm-2.1 1.6c-.1 1.6-1.6 2.9-3.2 2.9h-2.5c-.2 0-.2 0-.2-.2.5-1.5.7-3.1.6-4.5v-1.7c0-.1 0-.2.1-.2.9 0 1.7-.1 2.6.1 1.7.3 2.8 1.8 2.6 3.6z"/><path fill="#171717" d="M3.4 25.5c.5.7.9 1.4 1.3 2.1 8.3 12 19.4 20.2 33.6 24.1 2.8.8 5.7 1.3 8.6 1.7 3.8.5 7.7.6 11.5.4 4.9-.2 9.7-1 14.4-2.1h.1c-.3.1-.6.3-.9.4-.3.1-.6.3-.9.4-4.6 1.8-9.3 3.1-14.1 3.9-3.7.6-7.5.9-11.3.8-12.7-.5-23.3-5.3-31.8-14.7-4-4.5-7.1-9.5-9.6-15-.3-.6-.6-1.2-.9-2 0 .1 0 .1 0 0zM47.1 0c-.8.6-1.5 1.3-2.2 2.1-1.1 1.2-1.8 2.6-2.1 4.2-.2 1.4 0 2.8.3 4.2.5 1.7 1.2 3.3 2.1 4.9.6 1 1 2.1 1.2 3.2.3 2.1-.4 3.8-2.2 5-1.2.8-2.7 1.2-4.1 1.5-.2 0-.4.1-.7.1.1 0 .1-.1.1-.1 1.9-1.3 2.5-3.1 1.9-5.3-.3-1-.7-2-1.4-2.8-1.1-1.6-2.1-3.2-2.5-5.1-.8-3.2 0-5.8 2.4-8.1 1.6-1.5 3.5-2.6 5.6-3.4.6-.1 1.1-.3 1.6-.4z"/><path fill="#171717" d="M36.9 25.3c.3-.4.5-.8.5-1.3.1-.7-.1-1.4-.5-2s-.8-1-1.4-1.4c-.8-.5-1.5-1.1-2.1-1.9-.8-1-1.3-2.1-1.3-3.4 0-.6.2-1.3.4-1.8.7-1.7 2-3 3.5-4l-.3.6c-1.3 2.3-1.1 4.4.5 6.5.6.8 1.3 1.5 2 2.1.5.5 1 1 1.3 1.7.5 1 .5 2-.2 3-.6.9-1.5 1.5-2.4 1.9zM2.3 30.4c1.1 3 2.6 5.8 4.4 8.4 6.2 9.4 14.8 15.7 25.5 19 .1 0 .2.1.2.1-.4 0-.9-.1-1.3-.2-6.8-1.5-12.8-4.5-17.9-9.2-4.7-4.3-8-9.5-10.1-15.4-.3-.8-.6-1.7-.8-2.7-.1 0-.1 0 0 0z"/><path fill="#8A8788" d="M2.3 30.4c0 .1 0 .1 0 0-.2-.2-.2-.4-.2-.6.1.2.1.4.2.6z"/></svg>