<?xml version="1.0" encoding="utf-8"?>
<!-- Generator: Adobe Illustrator 22.1.0, SVG Export Plug-In . SVG Version: 6.00 Build 0)  -->
<svg version="1.1" id="Layer_1" xmlns="http://www.w3.org/2000/svg" xmlns:xlink="http://www.w3.org/1999/xlink" x="0px" y="0px"
	 width="48px" height="48px" viewBox="0 0 48 48" style="enable-background:new 0 0 48 48;" xml:space="preserve">
<rect x="9.7" y="31" width="27.2" height="1.6" fill="#52A3A3"/>
<path d="m35 41.9h-23.2c-2.3 0-4.2-1.9-4.2-4.2v-1c0-2.3 1.9-4.2 4.2-4.2h23.2c2.3 0 4.2 1.9 4.2 4.2v1c-0.1 2.3-2 4.2-4.2 4.2z" fill="#78C8C9"/>
<rect x="7.7" y="34.7" width="31.4" height="5" fill="#52A3A3"/>
<rect x="9.7" y="20.5" width="27.2" height="1.6" fill="#52A3A3"/>
<path d="m35 31.3h-23.2c-2.3 0-4.2-1.9-4.2-4.2v-1c0-2.3 1.9-4.2 4.2-4.2h23.2c2.3 0 4.2 1.9 4.2 4.2v1c-0.1 2.4-2 4.2-4.2 4.2z" fill="#78C8C9"/>
<rect x="7.7" y="24.2" width="31.4" height="5" fill="#52A3A3"/>
<path d="m35 20.8h-23.2c-2.3 0-4.2-1.9-4.2-4.2v-1c0-2.3 1.9-4.2 4.2-4.2h23.2c2.3 0 4.2 1.9 4.2 4.2v1c-0.1 2.4-2 4.2-4.2 4.2z" fill="#78C8C9"/>
<rect x="7.7" y="13.7" width="31.4" height="5" fill="#52A3A3"/>
<path d="m11.2 17.4h-0.2c-0.6 0-1.1-0.5-1.1-1.1v-0.2c0-0.6 0.5-1.1 1.1-1.1h0.2c0.6 0 1.1 0.5 1.1 1.1v0.2c-0.1 0.6-0.6 1.1-1.1 1.1z" fill="#4F5064"/>
<path d="m15.2 17.4h-0.2c-0.6 0-1.1-0.5-1.1-1.1v-0.2c0-0.6 0.5-1.1 1.1-1.1h0.2c0.6 0 1.1 0.5 1.1 1.1v0.2c0 0.6-0.5 1.1-1.1 1.1z" fill="#F5BE64"/>
<path d="m11.2 28h-0.2c-0.6 0-1.1-0.5-1.1-1.1v-0.2c0-0.6 0.5-1.1 1.1-1.1h0.2c0.6 0 1.1 0.5 1.1 1.1v0.3c-0.1 0.5-0.6 1-1.1 1z" fill="#4F5064"/>
<path d="m15.2 28h-0.2c-0.6 0-1.1-0.5-1.1-1.1v-0.2c0-0.6 0.5-1.1 1.1-1.1h0.2c0.6 0 1.1 0.5 1.1 1.1v0.3c0 0.5-0.5 1-1.1 1z" fill="#F5BE64"/>
<path d="m11.2 38.4h-0.2c-0.6 0-1.1-0.5-1.1-1.1v-0.2c0-0.6 0.5-1.1 1.1-1.1h0.2c0.6 0 1.1 0.5 1.1 1.1v0.2c-0.1 0.6-0.6 1.1-1.1 1.1z" fill="#4F5064"/>
<path d="m15.2 38.4h-0.2c-0.6 0-1.1-0.5-1.1-1.1v-0.2c0-0.6 0.5-1.1 1.1-1.1h0.2c0.6 0 1.1 0.5 1.1 1.1v0.2c0 0.6-0.5 1.1-1.1 1.1z" fill="#F5BE64"/>
<rect x="18.9" y="14.6" width="18.1" height="3.2" fill="#4F5064"/>
<rect x="18.9" y="16" width="18.1" height=".2" fill="#AAABB5"/>
<rect transform="matrix(-1.837e-16 1 -1 -1.837e-16 38.02 -5.603)" x="20.2" y="16.1" width="3.2" height=".2" fill="#AAABB5"/>
<rect transform="matrix(-1.837e-16 1 -1 -1.837e-16 41.042 -8.6256)" x="23.2" y="16.1" width="3.2" height=".2" fill="#AAABB5"/>
<rect transform="matrix(-1.837e-16 1 -1 -1.837e-16 44.065 -11.648)" x="26.2" y="16.1" width="3.2" height=".2" fill="#AAABB5"/>
<rect transform="matrix(-1.837e-16 1 -1 -1.837e-16 47.087 -14.671)" x="29.3" y="16.1" width="3.2" height=".2" fill="#AAABB5"/>
<rect transform="matrix(-1.837e-16 1 -1 -1.837e-16 50.11 -17.693)" x="32.3" y="16.1" width="3.2" height=".2" fill="#AAABB5"/>
<rect x="18.9" y="14.6" width="18.1" height=".1" fill="#404251"/>
<rect transform="matrix(-1.837e-16 1 -1 -1.837e-16 35.174 -2.757)" x="17.3" y="16.2" width="3.2" height=".1" fill="#404251"/>
<rect x="18.9" y="25.1" width="18.1" height="3.2" fill="#4F5064"/>
<rect x="18.9" y="26.5" width="18.1" height=".2" fill="#AAABB5"/>
<rect transform="matrix(-1.837e-16 1 -1 -1.837e-16 48.52 4.8969)" x="20.2" y="26.6" width="3.2" height=".2" fill="#AAABB5"/>
<rect transform="matrix(-1.837e-16 1 -1 -1.837e-16 51.542 1.8743)" x="23.2" y="26.6" width="3.2" height=".2" fill="#AAABB5"/>
<rect transform="matrix(-1.837e-16 1 -1 -1.837e-16 54.565 -1.1483)" x="26.2" y="26.6" width="3.2" height=".2" fill="#AAABB5"/>
<rect transform="matrix(-1.837e-16 1 -1 -1.837e-16 57.587 -4.1709)" x="29.3" y="26.6" width="3.2" height=".2" fill="#AAABB5"/>
<rect transform="matrix(-1.837e-16 1 -1 -1.837e-16 60.61 -7.1935)" x="32.3" y="26.6" width="3.2" height=".2" fill="#AAABB5"/>
<rect x="18.9" y="25.1" width="18.1" height=".1" fill="#404251"/>
<rect transform="matrix(-1.837e-16 1 -1 -1.837e-16 45.674 7.7429)" x="17.3" y="26.7" width="3.2" height=".1" fill="#404251"/>
<rect x="18.9" y="35.6" width="18.1" height="3.2" fill="#4F5064"/>
<rect x="18.9" y="37.1" width="18.1" height=".2" fill="#AAABB5"/>
<rect transform="matrix(-1.837e-16 1 -1 -1.837e-16 59.038 15.415)" x="20.2" y="37.1" width="3.2" height=".2" fill="#AAABB5"/>
<rect transform="matrix(-1.837e-16 1 -1 -1.837e-16 62.06 12.393)" x="23.2" y="37.1" width="3.2" height=".2" fill="#AAABB5"/>
<rect transform="matrix(-1.837e-16 1 -1 -1.837e-16 65.083 9.37)" x="26.2" y="37.1" width="3.2" height=".2" fill="#AAABB5"/>
<rect transform="matrix(-1.837e-16 1 -1 -1.837e-16 68.106 6.3474)" x="29.3" y="37.1" width="3.2" height=".2" fill="#AAABB5"/>
<rect transform="matrix(-1.837e-16 1 -1 -1.837e-16 71.128 3.3248)" x="32.3" y="37.1" width="3.2" height=".2" fill="#AAABB5"/>
<rect x="18.9" y="35.6" width="18.1" height=".1" fill="#404251"/>
<rect transform="matrix(-1.837e-16 1 -1 -1.837e-16 56.192 18.261)" x="17.3" y="37.2" width="3.2" height=".1" fill="#404251"/>
<path d="m48 40.1v0.1c0 0.4-0.3 0.8-0.6 1.1s-0.7 0.5-1.3 0.5h-12.4c-0.8 0-1.4-0.3-1.9-0.6l-0.6-0.6c-0.1-0.1-0.1-0.2-0.2-0.3v-0.1c-0.2-0.3-0.2-0.7-0.3-1.1-0.1-2.1 1.4-2.8 2.6-3.1-0.4-2.6 2-4.7 4.7-4.7 1.2 0 2.3 0.5 3 1.2 0.8 0.7 1.2 1.7 1.3 2.8h0.1c0.2-0.1 0.6-0.1 0.9-0.1h0.1c0.9 0 1.6 0.3 2.2 0.9 0.5 0.5 0.8 1.1 0.8 1.8v0.5c0.5 0.1 0.9 0.3 1.2 0.7 0.3 0.2 0.4 0.6 0.4 1z" fill="#fff"/>
<path d="m48 40.1v0.1c0 0.4-0.2 0.8-0.5 1.1s-0.8 0.5-1.3 0.5h-12.5c-0.7 0-1.4-0.3-1.9-0.6l-0.6-0.6c-0.1-0.1-0.1-0.2-0.2-0.3l0.2-0.1c2.5 0.5 2.8-2 2.8-2 2.9 1.4 4.6 0.2 4.6 0.2 3.4-1.2 2.7-5.1 2.5-6 0.8 0.7 1.2 1.7 1.3 2.8 0 0-0.2 0.6-0.4 0.9-0.2 0.4-0.2 0.8-0.2 1.2 0.2 1.1 1.1 1.6 1.8 1.9 0.5 0.2 1.1 0.2 1.6-0.1 1.5-0.9 0.5-3.3 0.5-3.3 0.5 0.5 0.8 1.1 0.8 1.8v0.5c0.5 0.1 0.9 0.3 1.2 0.7 0.2 0.5 0.3 0.9 0.3 1.3z" fill="#E5E5E5"/>
<path d="m0 12.8c0 0.4 0.2 0.7 0.4 0.9s0.6 0.4 1 0.4h9.4c0.6 0 1-0.2 1.4-0.5 0.2-0.1 0.3-0.3 0.4-0.5 0-0.1 0.1-0.1 0.1-0.2v-0.1c0.1-0.3 0.2-0.5 0.2-0.8 0.1-1.6-1.1-2.1-2-2.4 0.3-2-1.5-3.6-3.5-3.6-0.9 0-1.7 0.3-2.3 0.9-0.6 0.5-0.9 1.3-1 2.1h-0.1c0 0.1-0.3 0.1-0.5 0-0.7 0-1.3 0.3-1.7 0.7s-0.6 0.9-0.6 1.4v0.3c-0.4 0.1-0.7 0.3-0.9 0.5-0.2 0.3-0.3 0.6-0.3 0.9z" fill="#fff"/>
<path d="m0 12.8c0 0.4 0.2 0.7 0.4 0.9s0.6 0.4 1 0.4h9.4c0.6 0 1-0.2 1.4-0.5 0.2-0.1 0.3-0.3 0.4-0.5 0-0.1 0.1-0.1 0.1-0.2l-0.1-0.1c-1.9 0.4-2.1-1.5-2.1-1.5-2.2 1-3.5 0.2-3.5 0.2-2.6-0.9-2-3.9-1.9-4.5-0.6 0.5-0.9 1.3-1 2.1 0 0 0.2 0.4 0.3 0.7s0.2 0.6 0.1 0.9c-0.1 0.8-0.9 1.2-1.4 1.5-0.4 0.2-0.8 0.2-1.2-0.1-0.9-0.5-0.1-2.4-0.1-2.4-0.4 0.4-0.6 0.9-0.6 1.4v0.3c-0.4 0.1-0.7 0.3-0.9 0.5-0.2 0.3-0.3 0.6-0.3 0.9z" fill="#E5E5E5"/>
</svg>
