<?xml version="1.0" encoding="utf-8"?>
<!-- Generator: Adobe Illustrator 22.1.0, SVG Export Plug-In . SVG Version: 6.00 Build 0)  -->
<svg version="1.1" id="Layer_1" xmlns="http://www.w3.org/2000/svg" xmlns:xlink="http://www.w3.org/1999/xlink" x="0px" y="0px"
	 width="48px" height="48px" viewBox="0 0 48 48" style="enable-background:new 0 0 48 48;" xml:space="preserve">
<path d="m29.1 8.1v15.5c0 1.2-0.9 2.3-2.1 2.3h-14.3l-1.7 1.7-5.4 5.8 0.2-5.8 0.2-1.8h-2.6c-1.2 0-2.2-1.1-2.2-2.3v-15.4c0-1.2 1-2.1 2.2-2.1h23.5c1.1 0 2 0.8 2.1 1.8 0.1 0.1 0.1 0.2 0.1 0.3z" fill="#E7735A"/>
	<path d="m29.1 16.4v7.1c0 1.2-0.9 2.3-2.1 2.3h-14.3l-1.7 1.8-5.4 5.8 0.2-5.8 0.2-1.8h-2.6c-1.2 0-2.2-1.1-2.2-2.3v-7.1h27.9z" fill="#AD5644"/>
	<path d="m6.7 15.8c0.1 0.1 0.2 0.1 0.3 0.2 0.1 0 0.2 0.2 0.1 0.3-0.2 0.2-0.3 0.4-0.3 0.6-0.1 0.4 0.1 0.7 0.4 1 0 0.1 0.2 0.1 0.3 0.2 0.2 0.1 0.2 0.3 0.1 0.4-0.3 0.3-0.4 0.6-0.2 1 0.1 0.3 0.3 0.5 0.6 0.7 0 0 0.1 0 0.1 0.1 0.1 0 0.1 0.1 0.2 0.2 0 0.1 0 0.1-0.1 0.2-0.2 0.1-0.3 0.3-0.3 0.5s0 0.3 0.1 0.5 0.3 0.4 0.5 0.6c0.1 0.1 0.3 0.2 0.5 0.3 0.1 0 0.4 0.1 0.5 0.1 4.4 0.9 7.5-0.3 7.9-0.4 0.1 0 0.4-0.2 0.4-0.2h0.1v-6.6c-0.2-0.1-0.3-0.2-0.5-0.3-0.9-1.1-1.4-2.3-2.1-3.5-0.4-0.8-0.5-2.6-0.5-3.3 0-0.3-0.2-0.7-0.7-0.7-0.1 0-0.4 0-0.6 0.1s-0.4 0.3-0.5 0.7c-0.2 0.4-0.4 0.9-0.5 1.4-0.1 0.2-0.1 0.4-0.1 0.6v0.4 0.5c0 0.3 0.1 0.6 0.1 0.9 0.1 0.3 0.1 0.7 0.2 1v0.1c0.1 0.4-0.3 0.7-0.6 0.8-0.1 0-0.3 0.1-0.4 0.1h-4-0.6c-0.3 0-0.7 0.2-0.8 0.6-0.2 0.2 0 0.7 0.4 0.9z" fill="#F1EEDD"/>
<path d="m21.6 23.3h-3.1c-0.4 0-0.7-0.3-0.7-0.7v-7.5c0-0.4 0.3-0.7 0.7-0.7h3.1c0.4 0 0.7 0.3 0.7 0.7v7.5c0 0.4-0.3 0.7-0.7 0.7z" fill="#4F5064"/>
	<path d="m21.8 23.3h-3.5c-0.3 0-0.5-0.2-0.5-0.5v-4h4.5v4c0 0.3-0.2 0.5-0.5 0.5z" fill="#3B3C4B"/>
<path d="m25.5 35.2h11.8l5.8 6.8-0.2-6.8h2.1c1 0 1.8-0.9 1.8-1.9v-13.7c0-1.1-0.8-1.9-1.8-1.9h-19.5c-1 0-1.8 0.9-1.8 1.9v13.7c0 1 0.8 1.9 1.8 1.9z" fill="#4F5064"/>
<path d="m26.9 6c1.1 0 2 0.8 2.1 1.8v0.3 9.6h16c1 0 1.8 0.8 1.8 1.9v13.7c0 1.1-0.8 1.9-1.8 1.9h-2.2l0.2 6.8-5.8-6.8h-11.7c-1 0-1.8-0.9-1.8-1.9v-7.4h-11l-1.7 1.7-5.4 5.8 0.2-5.8 0.2-1.8h-2.6c-1.2 0-2.2-1.1-2.2-2.3v-15.4c0-1.2 1-2.1 2.2-2.1h23.5m0-1.2h-23.5c-0.9 0-1.7 0.3-2.4 0.9-0.6 0.7-1 1.5-1 2.4v15.5c0 1.8 1.5 3.4 3.4 3.4h1.4v0.6l-0.2 5.8c0 0.5 0.3 0.9 0.7 1.1 0.1 0.1 0.3 0.1 0.4 0.1 0.3 0 0.6-0.1 0.9-0.4l5.3-5.8 1.3-1.4h9.3v6.2c0 1.7 1.3 3.1 3 3.1h11.2l5.5 6.4c0.2 0.3 0.6 0.4 0.9 0.4 0.1 0 0.3 0 0.4-0.1 0.5-0.2 0.8-0.6 0.8-1.1l-0.2-5.6h0.9c1.6 0 3-1.4 3-3.1v-13.6c0-1.7-1.3-3.1-3-3.1h-14.8v-8.4-0.1-0.4c-0.2-1.6-1.6-2.8-3.3-2.8z" fill="#F5BE64"/>
	<path d="m46.8 26.9v6.3c0 1.1-0.8 1.9-1.8 1.9h-2.2l0.2 6.8-5.8-6.8h-11.7c-1 0-1.8-0.9-1.8-1.9v-6.3h23.1z" fill="#3B3C4B"/>
<path d="m44 23.6c-0.2-2.6-2.8-3.2-2.8-3.2-3.3-0.7-5.6 1.4-5.6 1.4s-2.3-2.2-5.6-1.4c0 0-2.6 0.6-2.8 3.2-0.2 2.9 6.1 7.8 8.3 8.9 2.4-1.1 8.8-6 8.5-8.9z" fill="#E7735A"/>
	<path d="m35.7 21.8v10.7c-2.2-1.2-8.5-6.1-8.3-8.9 0.2-2.6 2.8-3.2 2.8-3.2 3.2-0.7 5.5 1.4 5.5 1.4z" fill="#AD5644"/>
</svg>