<svg id="Layer_1" xmlns="http://www.w3.org/2000/svg" viewBox="0 0 578.6 335.6"><style>.st0{fill:#1d1819}.st1{fill:#e52129}.st2{fill:#8a8788}</style><path class="st0" d="M126.1 252.9c2.6 0 5.2 0 7.8-.1.8 0 .8.4.8.9v23.5c.5-.2.6-.6.8-.9 5.1-7.5 10.2-15.1 15.3-22.7.4-.6.8-.9 1.6-.9 2.5.1 5 0 7.5 0 0 .6-.4.9-.6 1.2-4.2 6.2-8.3 12.3-12.5 18.5-.6.8-.6 1.4-.1 2.2 4.6 7.1 9.2 14.2 13.8 21.2.2.3.4.6.7 1.2h-6.1c-1.3 0-2.9.4-3.9-.2-1-.5-1.4-2-2.1-3.1-2.7-4.4-5.5-8.7-8.2-13.1 0-.1-.1-.1-.3-.3-1.5 2-3 4.1-4.6 6.1-1 1.3-1.5 2.6-1.4 4.2.1 1.8 0 3.6 0 5.5 0 .7-.2.9-.9.9H126c.1-14.5.1-29.3.1-44.1zm325.8 81.6h-1c-1.8 0-1.8 0-2.3-1.7-.2-.1-.3.1-.5.2-1.7 1.8-4.7 2.3-6.8 1.2-1.3-.7-2-1.8-2.1-3.2-.4-3.4-.1-6.8-.2-10.2 0-.4.2-.6.6-.5h.1c3.2-.3 3.2-.3 3.2 2.9v5.7c0 1.8.7 2.7 2.1 2.8 1.6.1 2.7-.8 3-2.5.5-2.6.2-5.2.2-7.8 0-1 .2-1.3 1.2-1.2.8.1 1.7 0 2.6.1-.1 4.7-.1 9.5-.1 14.2z"/><path class="st1" d="M376.2 152.1c-2.2-9.5-10.4-16.8-20.1-17.8-3.4-.4-6.8-.1-10.1-.1-.8 0-1-.2-1-1v-10.3c0-1.9-.8-3.1-2.5-3.8-1.1-.5-2.3-.5-3.5-.5H215.2c-.7 0-1.5 0-2.2.1-2.4.4-3.6 1.7-3.6 4.2v32.7c0 5.3.8 10.6 2.2 15.7.2.7.5 1.1 1 1.5 23.8 17.8 49.9 30.9 78.4 39.2.6.2 1.1.2 1.7.1 4.6-.9 9.1-2 13.5-3.5 4.2-1.4 8.4-2.7 12.1-5.3 8.2-5.6 14.5-13 19.3-21.6.4-.7.9-1 1.7-1 3.5.1 7 0 10.5 0 2.2 0 4.4.1 6.6-.2 13.9-1.8 22.9-14.9 19.8-28.4zm-8.9 6.5c-.6 6.7-6.6 12-13.7 12.2-3.6.1-7.1 0-10.7 0-.7 0-1-.1-.7-.9 2.2-6.4 3-13 2.7-18.8v-7.3c0-.4-.1-.8.5-.8 3.6.1 7.3-.4 10.9.3 7.2 1.5 11.7 7.9 11 15.3z"/><path class="st0" d="M143.8 106.7c1.9 3 3.6 5.9 5.6 8.7 35.1 50.6 81.9 84.9 141.4 101.4 11.9 3.3 24.1 5.5 36.4 7 16.1 1.9 32.2 2.4 48.4 1.5 20.5-1 40.7-4.1 60.6-8.7.1 0 .2 0 .4.1-1.3.6-2.6 1.2-3.9 1.7-1.3.6-2.6 1.1-4 1.7-19.2 7.7-39.1 13.2-59.6 16.5-15.7 2.6-31.5 3.8-47.4 3.2-53.3-1.9-98.1-22.1-133.8-61.9-16.9-18.8-29.9-40.2-40.6-63-1.2-2.6-2.3-5.2-3.5-7.7v-.5zM327.8-.8c-3.3 2.7-6.5 5.6-9.3 8.8-4.5 5.2-7.6 11-8.6 17.9-.9 6.1-.2 12 1.4 17.8 2 7.2 5.1 13.9 8.7 20.5 2.3 4.3 4.2 8.8 5 13.7 1.5 9-1.7 16-9.2 21-5.3 3.5-11.2 5.3-17.3 6.3-.9.2-1.8.2-2.9.4l.4-.4c7.8-5.5 10.6-13.2 8-22.5-1.2-4.3-3.1-8.3-5.7-11.9-4.7-6.5-8.6-13.4-10.7-21.3-3.4-13.3.1-24.6 10-34 6.8-6.5 14.9-10.9 23.6-14.3 2.2-.7 4.3-1.5 6.6-2zm30.5 276.4c-.9 2.7-1.6 5.1-2.4 7.5-1.4 4.4-2.8 8.8-4.1 13.2-.2.7-.5 1-1.3 1-1.6-.1-3.3 0-4.9 0-.6 0-.9-.1-1-.7-3.2-11.3-6.3-22.7-9.5-34-.2-.8 0-.8.7-.8 2.1 0 4.3.1 6.4 0 1.1-.1 1.4.4 1.6 1.4 1.5 6.9 3.1 13.8 4.7 20.8 0 .2.1.4.3.9 1.1-3.9 2.2-7.6 3.2-11.2.8-2.7 1.6-5.4 2.3-8.2.2-.8.5-1.5 1-2.2 1.7-2.1 4.9-1.9 6.2.5 1.2 2.2 1.6 4.8 2.3 7.2 1.3 4.3 2.5 8.6 3.7 12.8.1.3.1.6.4.8 1.7-7.3 3.3-14.6 4.9-21.9.2-.8.5-1 1.2-1h6.5c.7 0 1 .1.8.9-3.2 11.3-6.3 22.5-9.4 33.8-.2.6-.4.9-1.1.8-1.7-.1-3.3-.1-5 0-.7 0-.9-.3-1.1-.8-2.1-6.8-4.2-13.6-6.4-20.8zm-97.8-14.1c-1.7.2-3.3.2-5 .3-4.1.3-8.2 0-12.2.2-5 .3-8.2 2.9-9.3 7.8-1.2 5.2-1.2 10.5-.2 15.7 1.1 5.7 4.8 8.7 10.3 8.9.7 0 1.3-.1 1.9-.5 2.5-1.4 5-2.7 7.8-4.2-.2 2.6-.2 4.9-.5 7.3-.2 2.1-1.4 3.3-3.5 3.7-1.7.3-3.3.2-5-.3-1.1-.3-2-1-2.1-2.2-.1-.6-.4-.6-.9-.6-1.9.1-3.9.3-5.8.3-.9 0-1 .4-.9 1.1.4 3.7 2.4 6.1 5.8 7.3 4.1 1.6 8.4 1.7 12.7.6 4.7-1.3 7.5-4.7 7.8-9.6.1-2 .1-4 .1-6.1v-28.9c.1-.7 0-.9-1-.8zm-7 14.6v5.8c0 .6-.2 1-.8 1.2-1.3.6-2.6 1.3-3.9 2-3.3 1.7-6.7.1-7.3-3.6-.5-2.8-.3-5.7.4-8.4s2.4-3.9 5.2-3.9h5.6c.7 0 .9.2.9.8-.1 2.1-.1 4.1-.1 6.1z"/><path class="st0" d="M284.7 105.9c1.1-1.7 1.9-3.5 2.3-5.4.5-3.2-.3-6-2-8.6-1.5-2.4-3.5-4.4-5.8-6-3.3-2.3-6.4-4.8-8.9-7.9-3.4-4.1-5.5-8.8-5.4-14.2.1-2.7.7-5.3 1.8-7.8 3.1-7.2 8.4-12.4 14.7-17-.5.8-1 1.7-1.5 2.5-5.5 9.6-4.7 18.7 2 27.4 2.6 3.3 5.5 6.2 8.6 9 2.2 2 4.2 4.3 5.5 7 2.2 4.4 2 8.6-.8 12.7-2.8 3.7-6.4 6.3-10.5 8.3zm-5.9 173.7c2.9-4.2 5.7-8.5 8.6-12.7.7-1.1 1.4-2.1 2.1-3.2.2-.4.5-.6 1-.6h8.3c.1.5-.2.7-.4.9-3.4 4.7-6.8 9.4-10.2 14-.6.7-.6 1.2 0 2 4.1 5.3 8.1 10.7 12.2 16 .3.3.5.7.9 1.2h-9.4c-.5 0-.6-.4-.8-.7-2.7-3.6-5.3-7.2-8-10.7-.3-.3-.5-.7-.8-1.1-1.2 1.6-2.3 3.2-3.4 4.8-.3.4-.2.7-.2 1.1v5.7c0 .7-.1 1-.9 1-2.1-.1-4.1-.1-6.2 0-.8 0-1-.2-1-1v-44.7c0-.8.2-1.2 1.1-1.1 1.9.1 3.7.1 5.6 0 1.1-.1 1.5.2 1.5 1.4-.1 8.9 0 17.9 0 26.8v1c-.2-.1-.1-.1 0-.1zM139.1 127.4c4.7 12.5 11 24.3 18.4 35.4 26.3 39.4 62.3 65.9 107.4 80.1.3.1.6.2 1 .4-1.9-.1-3.7-.5-5.5-.9-28.4-6.5-53.7-19.1-75.4-38.7-19.8-17.9-33.6-39.8-42.5-64.9-1.3-3.7-2.5-7.4-3.5-11.2-.2-.2-.1-.3.1-.2zm54.4 144.9c-1.1-6-4.4-9.4-9.9-10.6-2.3-.5-4.6-.5-6.8-.3-6.1.4-10.2 3.8-11.6 9.8-1.4 5.8-1.3 11.6.1 17.3 1.1 4.8 4 8 9 9.2 2.9.7 5.9.7 8.9.2 5.7-.9 9-4.3 10.3-9.8.6-2.7.7-5.5.8-8.4-.3-2.5-.4-5-.8-7.4zm-8 13.3c-.8 3.3-2.7 5-6 5.1-3.3.2-5.7-1.4-6.6-4.6-1.2-4.3-1.2-8.7-.2-13 1.1-4.5 6.8-6.3 10.5-3.5 1.6 1.2 2.1 2.9 2.4 4.7.2 1.7.2 3.4.2 5.1.2 2.2.2 4.2-.3 6.2zm146.6-13.3c-1.1-6-4.3-9.4-9.9-10.6-2.3-.5-4.7-.5-7.1-.3-6.2.6-10 3.8-11.5 9.8-1.4 5.8-1.3 11.6.1 17.3 1.2 5 4.3 8.1 9.4 9.2 2.7.5 5.4.6 8.1.2 5.9-.9 9.3-4 10.6-9.8.6-2.8.8-5.6.8-8.6.1-2.3 0-4.8-.5-7.2zm-7.9 13.3c-.7 3.3-2.7 5-6 5.2-3.3.2-5.7-1.3-6.6-4.6-1.2-4.3-1.2-8.7-.2-13 1.1-4.5 6.8-6.3 10.5-3.6 1.6 1.2 2.2 3 2.4 4.8.2 1.7.2 3.3.2 5 .2 2.1.1 4.2-.3 6.2zm-124.4-6.1v-16.7c0-1 .3-1.3 1.2-1.2 1.2.1 2.5.1 3.7 0 .8 0 1.3.2 1.6 1 .3.8.7 1.5 1 2.3.3.8.6.9 1.3.5 2.4-1.2 5-2.2 7.3-3.5 1.9-1 3.7-.9 5.5-.1 4 1.7 6 4.9 6.5 9.1.2 2.1.1 4.2.1 6.3V296c0 .9-.3 1.2-1.2 1.1-1.9-.1-3.8-.1-5.7 0-1 0-1.3-.1-1.3-1.2.1-7 0-13.9 0-20.9 0-.9 0-1.7-.2-2.6-.5-2.7-3-4.1-5.5-3-1.8.7-3.6 1.5-5.4 2.2-.8.3-1 .7-1 1.5v22.7c0 1-.3 1.2-1.2 1.2-1.9-.1-3.8-.1-5.7 0-.9 0-1.2-.2-1.2-1.2.3-5.3.2-10.8.2-16.3zm237.5-.5v17.1c0 .9-.3 1.1-1.2 1.1-2.1-.1-4.3-.1-6.4 0-.9 0-1.1-.2-1.1-1.1v-34.2c0-1-.2-1.3-1.2-1.3-3.2.1-6.4 0-9.7 0-.8 0-1-.2-1-1v-5.8c0-.7.1-1 .9-.9h30.8c.6 0 .8.2.8.8v6.1c0 .7-.2.9-.9.9h-9.9c-1 0-1.1.3-1.1 1.2V279zm-36-4v-21c0-.9.3-1.2 1.2-1.1 2.2.1 4.4.1 6.6 0 .7 0 .9.2.9.9v42.5c0 .8-.2 1-1 .9-2.2 0-4.4-.1-6.6 0-.9 0-1.1-.2-1.1-1.1.1-7 0-14.1 0-21.1zm6.3 48.1c-.8-1.9-2.2-3.1-4.3-3.2-1.7-.1-3.2.5-4.3 2.1v-4.5c0-3.1 0-3.1-3.1-3-.6 0-.7.2-.7.7v18.4c0 .6.2.8.8.8 1.3 0 2.6.2 2.8-1.7.2.2.4.3.5.4 3 2.7 7.1 1.9 8.5-1.9.9-2.6.9-5.4-.2-8.1zM404 330c-.5 1-1.2 1.6-2.3 1.6-1.2-.1-2-.6-2.3-1.8-.5-1.6-.5-3.3-.1-4.9.3-1.1 1-1.7 2.2-1.8 1.2-.1 2 .4 2.5 1.5.4.9.4 1.8.5 2.7-.1.9-.1 1.8-.5 2.7zm-53.8-3.5c1.5-1.9 3.2-3.6 4.8-5.4.6-.6 1.1-1 2-.9 1 .1 1.9 0 3.2 0-1.3 1.4-2.4 2.6-3.5 3.8-.7.8-1.9 1.6-1.9 2.4 0 .8 1.1 1.7 1.7 2.5 1.3 1.8 2.6 3.5 4.1 5.5h-4.2c-.4 0-.5-.4-.7-.7-1-1.4-1.9-2.7-2.9-4.1-.2-.3-.4-1.1-.9-.8-.6.4-1.5.7-1.5 1.6v3.1c0 .6-.1.8-.8.8-3.1.1-3.1.1-3.1-3v-15.8c0-.9.2-1.1 1.1-1.1 2.8 0 2.8 0 2.8 2.8-.2 3.2 0 6.2-.2 9.3zM322.9 316c-2.3-.4-4.6-.1-6.9-.2-.8 0-1 .2-1 .9.1 2.8 0 5.6 0 8.4v6.3c0 1-.4 2.4.2 2.9.6.5 1.9.1 2.9.2.7.1.9-.2.8-.8v-4.9c0-.7.1-1 .9-.9.8 0 1.7 0 2.6-.1 3.3-.4 5.3-2.5 5.4-5.8.2-3.4-1.4-5.4-4.9-6zm-.9 8.4c-.9.3-2.1.6-2.7.1-.8-.6-.1-1.8-.3-2.5v-.7c.2-.7-.6-2 .5-2.2 2.5-.5 4 .3 4.3 2 .4 1.6-.4 2.9-1.8 3.3zm101.2-.1c0-2-1.2-3.4-3-4-2.6-.8-5.1-.5-7.6.6-.2.1-.6.1-.5.5.3.7.6 1.6 1.1 2.2.4.4 1-.2 1.5-.4 1-.3 2-.5 3.1-.4 1 .1 1.7 1.1 1.6 2.2-.2 1.1-1 .5-1.6.5-1.7.1-3.5.2-5.1 1-1.6.8-2.3 2.2-2.1 4.3.2 1.9 1.2 3.3 2.9 3.7 2.4.6 4.5.2 6.2-2 .9 2.1.9 2.1 2.9 2 .5 0 .6-.2.6-.7 0-3.1.1-6.3 0-9.5zm-3.7 5.1c-.2 1.6-1.3 2.6-2.9 2.5-.9 0-1.7-.2-1.9-1.2-.2-.9.1-1.8 1-2.3.8-.4 1.6-.5 2.3-.5 1.6 0 1.6 0 1.5 1.5zm-84.5-1.1c2 .1 4 0 5.9 0 2.5 0 2.5 0 2.3-2.5-.2-3.1-1.8-5.1-4.5-5.7-4.4-1-7.8 1.2-8.5 5.7-.2 1-.2 2.1 0 3.1.3 2.3 1.4 4.2 3.7 5.1 2.6 1.1 5.2.9 7.8 0 .4-.1.7-.3.6-.8v-2.4c-.5.2-.8.3-1.2.4-1.5.5-3 .8-4.6.5-1.3-.3-2.2-1.2-2.5-2.5.1-.6.3-.9 1-.9zm-.6-3.6c.4-1.3 1.3-1.9 2.6-1.9s2.2.7 2.5 2c.2.7.2 1.1-.8 1-.6-.1-1.2 0-1.7 0-.6 0-1.2-.1-1.9 0-.9 0-.9-.4-.7-1.1zm39.7-.7c-.1-2-1.3-3.2-3.1-3.7-2.6-.7-5-.4-7.5.6-.6.2-.5.5-.3.9.8 1.9.8 1.9 2.8 1.3.9-.3 1.9-.4 2.9-.3 1 .2 1.6 1 1.5 2.2-.1 1.2-1 .5-1.5.6-1.8.1-3.6.2-5.2 1-1.5.8-2.2 2.2-2.1 4.1.2 2.1 1.1 3.4 2.8 3.8 2.4.6 4.6.2 6.3-2 .9 2.1.9 2.1 2.9 2 .4 0 .6-.1.6-.6-.1-3.3 0-6.6-.1-9.9zm-3.8 5.3c-.1 1.6-1.2 2.6-2.8 2.6-.9 0-1.7-.2-1.9-1.2-.2-1 .1-1.8 1.1-2.3.7-.4 1.6-.4 2.5-.4 1.1-.5 1.2.3 1.1 1.3zm11.2-6.9c1.7-2.2 3.6-2.6 5.7-2.3 2.1.2 3.6 1.6 3.9 3.7.4 3.4.1 6.8.2 10.2 0 .4-.1.6-.5.5h-.2c-3.1.1-3.1.1-3.1-3v-5.6c0-1.9-.7-2.8-2-2.9-1.7-.1-2.8.7-3.1 2.5-.5 2.6-.2 5.3-.2 7.9 0 .8-.2 1.2-1.1 1.1-.9-.1-2.1.4-2.7-.2-.4-.5-.1-1.7-.1-2.6v-10.4c0-1 .3-1.1 1.2-1.1 1.1 0 2.1.1 2 2.2zm49.3.3c1.2-1.7 2.5-2.8 4.6-2.8.8 0 1.3.1 1 1.1v.1c-.1.7.1 1.6-.2 2.2-.4.7-1.3.1-2 .3-2 .4-2.9 1.5-3 3.6v6.4c0 .7-.1.9-.9.9-3 0-3 .1-3-2.9v-10.2c0-1 .3-1.2 1.2-1.1 1.6 0 1.6-.1 2.3 2.4z"/><path class="st2" d="M139.1 127.4c-.1.1-.2.1-.2.2-.5-.9-.6-1.9-.8-2.8.5.8.8 1.7 1 2.6z"/></svg>