<?xml version="1.0" encoding="utf-8"?>
<!-- Generator: Adobe Illustrator 22.1.0, SVG Export Plug-In . SVG Version: 6.00 Build 0)  -->
<svg version="1.1" id="Layer_1" xmlns="http://www.w3.org/2000/svg" xmlns:xlink="http://www.w3.org/1999/xlink" x="0px" y="0px"
	 width="48px" height="48px" viewBox="0 0 48 48" style="enable-background:new 0 0 48 48;" xml:space="preserve">
<path fill="#976F68" d="M24,5.3L9,11.4v15c0,0,0.9,10.5,15,16.3c14.1-5.8,15-16.3,15-16.3v-15L24,5.3z"/>
<path fill="#E7735A" d="M24,9.1L12.1,14v12c0,0,0.7,8.3,11.9,13c11.2-4.6,11.9-13,11.9-13V14L24,9.1z"/>
<path opacity="0.1" fill="#231F20" d="M39,26.4v-15L24,5.3v37.4C38.1,36.9,39,26.4,39,26.4z"/>
<path fill="#F5BE64" d="M20.9,30.9C20.9,30.9,20.8,30.9,20.9,30.9c-0.5,0-0.9-0.2-1.2-0.5l-4.6-4.9c-0.6-0.7-0.6-1.7,0.1-2.4
	c0.7-0.6,1.7-0.6,2.4,0.1l3.4,3.6l9.6-9.3c0.7-0.6,1.7-0.6,2.4,0c0.6,0.7,0.6,1.7,0,2.4L22,30.5C21.7,30.8,21.3,30.9,20.9,30.9z"/>
</svg>