<svg xmlns="http://www.w3.org/2000/svg" width="48" height="48" viewBox="0 0 48 48"><path fill="#52A3A3" d="M9.7 31h27.2v1.6H9.7z"/><path d="M35 41.9H11.8c-2.3 0-4.2-1.9-4.2-4.2v-1c0-2.3 1.9-4.2 4.2-4.2H35c2.3 0 4.2 1.9 4.2 4.2v1c-.1 2.3-2 4.2-4.2 4.2z" fill="#78C8C9"/><path fill="#52A3A3" d="M7.7 34.7h31.4v5H7.7zm2-14.2h27.2v1.6H9.7z"/><path d="M35 31.3H11.8c-2.3 0-4.2-1.9-4.2-4.2v-1c0-2.3 1.9-4.2 4.2-4.2H35c2.3 0 4.2 1.9 4.2 4.2v1c-.1 2.4-2 4.2-4.2 4.2z" fill="#78C8C9"/><path fill="#52A3A3" d="M7.7 24.2h31.4v5H7.7z"/><path d="M35 20.8H11.8c-2.3 0-4.2-1.9-4.2-4.2v-1c0-2.3 1.9-4.2 4.2-4.2H35c2.3 0 4.2 1.9 4.2 4.2v1c-.1 2.4-2 4.2-4.2 4.2z" fill="#78C8C9"/><path fill="#52A3A3" d="M7.7 13.7h31.4v5H7.7z"/><path d="M11.2 17.4H11c-.6 0-1.1-.5-1.1-1.1v-.2c0-.6.5-1.1 1.1-1.1h.2c.6 0 1.1.5 1.1 1.1v.2c-.1.6-.6 1.1-1.1 1.1z" fill="#4F5064"/><path d="M15.2 17.4H15c-.6 0-1.1-.5-1.1-1.1v-.2c0-.6.5-1.1 1.1-1.1h.2c.6 0 1.1.5 1.1 1.1v.2c0 .6-.5 1.1-1.1 1.1z" fill="#F5BE64"/><path d="M11.2 28H11c-.6 0-1.1-.5-1.1-1.1v-.2c0-.6.5-1.1 1.1-1.1h.2c.6 0 1.1.5 1.1 1.1v.3c-.1.5-.6 1-1.1 1z" fill="#4F5064"/><path d="M15.2 28H15c-.6 0-1.1-.5-1.1-1.1v-.2c0-.6.5-1.1 1.1-1.1h.2c.6 0 1.1.5 1.1 1.1v.3c0 .5-.5 1-1.1 1z" fill="#F5BE64"/><path d="M11.2 38.4H11c-.6 0-1.1-.5-1.1-1.1v-.2c0-.6.5-1.1 1.1-1.1h.2c.6 0 1.1.5 1.1 1.1v.2c-.1.6-.6 1.1-1.1 1.1z" fill="#4F5064"/><path d="M15.2 38.4H15c-.6 0-1.1-.5-1.1-1.1v-.2c0-.6.5-1.1 1.1-1.1h.2c.6 0 1.1.5 1.1 1.1v.2c0 .6-.5 1.1-1.1 1.1z" fill="#F5BE64"/><path fill="#4F5064" d="M18.9 14.6H37v3.2H18.9z"/><path fill="#AAABB5" d="M18.9 16H37v.2H18.9z"/><path fill="#AAABB5" d="M21.92 14.597v3.2h-.2v-3.2zm3.022-.023v3.2h-.2v-3.2zm3.023-.022v3.2h-.2v-3.2zm3.022.077v3.2h-.2v-3.2zm3.023-.022v3.2h-.2v-3.2z"/><path fill="#404251" d="M18.9 14.6H37v.1H18.9z"/><path fill="#404251" d="M18.974 14.543v3.2h-.1v-3.2z"/><path fill="#4F5064" d="M18.9 25.1H37v3.2H18.9z"/><path fill="#AAABB5" d="M18.9 26.5H37v.2H18.9z"/><path fill="#AAABB5" d="M21.92 25.097v3.2h-.2v-3.2zm3.022-.023v3.2h-.2v-3.2zm3.023-.022v3.2h-.2v-3.2zm3.022.078v3.2h-.2v-3.2zm3.023-.024v3.2h-.2v-3.2z"/><path fill="#404251" d="M18.9 25.1H37v.1H18.9z"/><path fill="#404251" d="M18.974 25.043v3.2h-.1v-3.2z"/><path fill="#4F5064" d="M18.9 35.6H37v3.2H18.9z"/><path fill="#AAABB5" d="M18.9 37.1H37v.2H18.9z"/><path fill="#AAABB5" d="M21.938 35.615v3.2h-.2v-3.2zm3.022-.022v3.2h-.2v-3.2zm3.023-.023v3.2h-.2v-3.2zm3.023.077v3.2h-.2v-3.2zm3.022-.022v3.2h-.2v-3.2z"/><path fill="#404251" d="M18.9 35.6H37v.1H18.9z"/><path fill="#404251" d="M18.992 35.561v3.2h-.1v-3.2z"/><path d="M48 40.1v.1c0 .4-.3.8-.6 1.1s-.7.5-1.3.5H33.7c-.8 0-1.4-.3-1.9-.6l-.6-.6c-.1-.1-.1-.2-.2-.3v-.1c-.2-.3-.2-.7-.3-1.1-.1-2.1 1.4-2.8 2.6-3.1-.4-2.6 2-4.7 4.7-4.7 1.2 0 2.3.5 3 1.2.8.7 1.2 1.7 1.3 2.8h.1c.2-.1.6-.1.9-.1h.1c.9 0 1.6.3 2.2.9.5.5.8 1.1.8 1.8v.5c.5.1.9.3 1.2.7.3.2.4.6.4 1z" fill="#fff"/><path d="M48 40.1v.1c0 .4-.2.8-.5 1.1s-.8.5-1.3.5H33.7c-.7 0-1.4-.3-1.9-.6l-.6-.6c-.1-.1-.1-.2-.2-.3l.2-.1c2.5.5 2.8-2 2.8-2 2.9 1.4 4.6.2 4.6.2 3.4-1.2 2.7-5.1 2.5-6 .8.7 1.2 1.7 1.3 2.8 0 0-.2.6-.4.9-.2.4-.2.8-.2 1.2.2 1.1 1.1 1.6 1.8 1.9.5.2 1.1.2 1.6-.1 1.5-.9.5-3.3.5-3.3.5.5.8 1.1.8 1.8v.5c.5.1.9.3 1.2.7.2.5.3.9.3 1.3z" fill="#E5E5E5"/><path d="M0 12.8c0 .4.2.7.4.9s.6.4 1 .4h9.4c.6 0 1-.2 1.4-.5.2-.1.3-.3.4-.5 0-.1.1-.1.1-.2v-.1c.1-.3.2-.5.2-.8.1-1.6-1.1-2.1-2-2.4.3-2-1.5-3.6-3.5-3.6-.9 0-1.7.3-2.3.9-.6.5-.9 1.3-1 2.1H4c0 .1-.3.1-.5 0-.7 0-1.3.3-1.7.7s-.6.9-.6 1.4v.3c-.4.1-.7.3-.9.5-.2.3-.3.6-.3.9z" fill="#fff"/><path d="M0 12.8c0 .4.2.7.4.9s.6.4 1 .4h9.4c.6 0 1-.2 1.4-.5.2-.1.3-.3.4-.5 0-.1.1-.1.1-.2l-.1-.1c-1.9.4-2.1-1.5-2.1-1.5-2.2 1-3.5.2-3.5.2-2.6-.9-2-3.9-1.9-4.5-.6.5-.9 1.3-1 2.1 0 0 .2.4.3.7s.2.6.1.9c-.1.8-.9 1.2-1.4 1.5-.4.2-.8.2-1.2-.1-.9-.5-.1-2.4-.1-2.4-.4.4-.6.9-.6 1.4v.3c-.4.1-.7.3-.9.5-.2.3-.3.6-.3.9z" fill="#E5E5E5"/></svg>