<svg xmlns="http://www.w3.org/2000/svg" width="48" height="53" viewBox="0 0 48 53"><defs><style>.cls-1{fill:#e10098;fill-rule:evenodd}</style></defs><path class="cls-1" d="M45.58 33.29a4.578 4.578 0 0 0-1.27-.49V20.21a5.221 5.221 0 0 0 1.29-.5 4.7 4.7 0 0 0 1.76-6.46 4.864 4.864 0 0 0-6.57-1.73 4.564 4.564 0 0 0-1.09.85l-11.09-6.3a4.592 4.592 0 0 0 .2-1.35 4.811 4.811 0 0 0-9.62 0 4.642 4.642 0 0 0 .2 1.35L8.3 12.36a5.024 5.024 0 0 0-1.09-.84 4.859 4.859 0 0 0-6.57 1.73 4.692 4.692 0 0 0 1.76 6.46 5.309 5.309 0 0 0 1.28.5V32.8a4.638 4.638 0 0 0-1.26.49 4.7 4.7 0 0 0-1.77 6.46 4.859 4.859 0 0 0 6.57 1.73 4.7 4.7 0 0 0 1.08-.83l11.09 6.29a4.525 4.525 0 0 0-.2 1.34 4.811 4.811 0 0 0 9.62 0 4.612 4.612 0 0 0-.25-1.49l11.03-6.26a4.656 4.656 0 0 0 1.19.95 4.848 4.848 0 0 0 6.56-1.73 4.663 4.663 0 0 0-1.76-6.46zm-39.42-.44a1.332 1.332 0 0 1-.19-.05V20.19a4.714 4.714 0 0 0 3-2.22 4.649 4.649 0 0 0 .46-3.66l11.11-6.3c.05.04.09.09.14.13zm21.39 12.24a4.858 4.858 0 0 0-7.01-.09l-11.1-6.3c.02-.06.03-.12.05-.18h29.02l.09.31zm11.46-10.06a4.546 4.546 0 0 0-.5 1.24H9.49a4.676 4.676 0 0 0-.5-1.24 4.887 4.887 0 0 0-.85-1.06L22.66 9.26a4.986 4.986 0 0 0 1.34.19 4.874 4.874 0 0 0 1.34-.19l14.52 24.71a4.451 4.451 0 0 0-.85 1.06zm3.02-2.23c-.06.02-.13.03-.19.05L27.32 8.14a1.593 1.593 0 0 0 .13-.13l11.12 6.31a4.625 4.625 0 0 0 .46 3.65 4.714 4.714 0 0 0 3 2.22V32.8z"/></svg>