<?xml version="1.0" encoding="utf-8"?>
<!-- Generator: Adobe Illustrator 23.0.3, SVG Export Plug-In . SVG Version: 6.00 Build 0)  -->
<svg version="1.2" baseProfile="tiny" id="Layer_1" xmlns="http://www.w3.org/2000/svg" xmlns:xlink="http://www.w3.org/1999/xlink"
	 x="0px" y="0px" viewBox="0 0 75 58" xml:space="preserve">
<path fill="#171717" d="M58.6,36.3c-0.5-2.3-2.5-4-4.8-4.2c-0.8-0.1-1.6,0-2.4,0c-0.2,0-0.2-0.1-0.2-0.2c0-0.8,0-1.6,0-2.4
	c0-0.4-0.2-0.7-0.6-0.9c-0.3-0.1-0.6-0.1-0.8-0.1c-4.9,0-9.8,0-14.7,0s-9.8,0-14.7,0c-0.2,0-0.4,0-0.5,0c-0.6,0.1-0.9,0.4-0.9,1
	c0,2.6,0,5.2,0,7.8c0,1.3,0.2,2.5,0.5,3.7c0,0.2,0.1,0.3,0.2,0.3c5.6,4.2,11.9,7.3,18.6,9.3c0.1,0,0.3,0.1,0.4,0
	c1.1-0.2,2.2-0.5,3.2-0.8s2-0.7,2.9-1.2c2-1.3,3.4-3.1,4.6-5.1c0.1-0.2,0.2-0.2,0.4-0.2c0.8,0,1.7,0,2.5,0c0.5,0,1.1,0,1.6,0
	C57.2,42.6,59.3,39.5,58.6,36.3z M56.5,37.9c-0.1,1.6-1.6,2.9-3.2,2.9c-0.8,0-1.7,0-2.5,0c-0.2,0-0.2,0-0.2-0.2
	c0.5-1.5,0.7-3.1,0.6-4.5c0-0.7,0-1.2,0-1.7c0-0.1,0-0.2,0.1-0.2c0.9,0,1.7-0.1,2.6,0.1C55.6,34.6,56.7,36.1,56.5,37.9z"/>
<path fill="#171717" d="M3.4,25.5c0.5,0.7,0.9,1.4,1.3,2.1c8.3,12,19.4,20.2,33.6,24.1c2.8,0.8,5.7,1.3,8.6,1.7
	c3.8,0.5,7.7,0.6,11.5,0.4c4.9-0.2,9.7-1,14.4-2.1h0.1c-0.3,0.1-0.6,0.3-0.9,0.4c-0.3,0.1-0.6,0.3-0.9,0.4
	c-4.6,1.8-9.3,3.1-14.1,3.9c-3.7,0.6-7.5,0.9-11.3,0.8C33,56.7,22.4,51.9,13.9,42.5c-4-4.5-7.1-9.5-9.6-15C4,26.9,3.7,26.3,3.4,25.5
	C3.4,25.6,3.4,25.6,3.4,25.5z"/>
<path fill="#171717" d="M47.1,0c-0.8,0.6-1.5,1.3-2.2,2.1c-1.1,1.2-1.8,2.6-2.1,4.2c-0.2,1.4,0,2.8,0.3,4.2c0.5,1.7,1.2,3.3,2.1,4.9
	c0.6,1,1,2.1,1.2,3.2c0.3,2.1-0.4,3.8-2.2,5c-1.2,0.8-2.7,1.2-4.1,1.5c-0.2,0-0.4,0.1-0.7,0.1c0.1,0,0.1-0.1,0.1-0.1
	c1.9-1.3,2.5-3.1,1.9-5.3c-0.3-1-0.7-2-1.4-2.8c-1.1-1.6-2.1-3.2-2.5-5.1c-0.8-3.2,0-5.8,2.4-8.1c1.6-1.5,3.5-2.6,5.6-3.4
	C46.1,0.3,46.6,0.1,47.1,0z"/>
<path fill="#171717" d="M36.9,25.3c0.3-0.4,0.5-0.8,0.5-1.3c0.1-0.7-0.1-1.4-0.5-2s-0.8-1-1.4-1.4c-0.8-0.5-1.5-1.1-2.1-1.9
	c-0.8-1-1.3-2.1-1.3-3.4c0-0.6,0.2-1.3,0.4-1.8c0.7-1.7,2-3,3.5-4c-0.1,0.2-0.2,0.4-0.3,0.6c-1.3,2.3-1.1,4.4,0.5,6.5
	c0.6,0.8,1.3,1.5,2,2.1c0.5,0.5,1,1,1.3,1.7c0.5,1,0.5,2-0.2,3C38.7,24.3,37.8,24.9,36.9,25.3z"/>
<path fill="#171717" d="M2.3,30.4c1.1,3,2.6,5.8,4.4,8.4c6.2,9.4,14.8,15.7,25.5,19c0.1,0,0.2,0.1,0.2,0.1c-0.4,0-0.9-0.1-1.3-0.2
	c-6.8-1.5-12.8-4.5-17.9-9.2c-4.7-4.3-8-9.5-10.1-15.4C2.8,32.3,2.5,31.4,2.3,30.4C2.2,30.4,2.2,30.4,2.3,30.4z"/>
<path fill="#8A8788" d="M2.3,30.4C2.3,30.5,2.3,30.5,2.3,30.4c-0.2-0.2-0.2-0.4-0.2-0.6C2.2,30,2.2,30.2,2.3,30.4z"/>
</svg>
