<svg xmlns="http://www.w3.org/2000/svg" width="48" height="48" viewBox="0 0 48 48"><path fill="#976F68" d="M24 5.3L9 11.4v15s.9 10.5 15 16.3c14.1-5.8 15-16.3 15-16.3v-15L24 5.3z"/><path fill="#E7735A" d="M24 9.1L12.1 14v12s.7 8.3 11.9 13c11.2-4.6 11.9-13 11.9-13V14L24 9.1z"/><path opacity=".1" fill="#231F20" d="M39 26.4v-15L24 5.3v37.4c14.1-5.8 15-16.3 15-16.3z"/><path fill="#F5BE64" d="M20.9 30.9s-.1 0 0 0c-.5 0-.9-.2-1.2-.5l-4.6-4.9c-.6-.7-.6-1.7.1-2.4.7-.6 1.7-.6 2.4.1l3.4 3.6 9.6-9.3c.7-.6 1.7-.6 2.4 0 .6.7.6 1.7 0 2.4L22 30.5c-.3.3-.7.4-1.1.4z"/></svg>