<?xml version="1.0" encoding="utf-8"?>
<!-- Generator: Adobe Illustrator 22.1.0, SVG Export Plug-In . SVG Version: 6.00 Build 0)  -->
<svg version="1.1" id="Layer_1" xmlns="http://www.w3.org/2000/svg" xmlns:xlink="http://www.w3.org/1999/xlink" x="0px" y="0px"
	 width="48px" height="48px" viewBox="0 0 48 48" style="enable-background:new 0 0 48 48;" xml:space="preserve">
<path d="m29.5 25.5h-11c-4.7 0-8.5-3.8-8.5-8.5v-2.3c0-4.7 3.8-8.5 8.5-8.5h11c4.7 0 8.5 3.8 8.5 8.5v2.3c0 4.7-3.8 8.5-8.5 8.5z" fill="#78C8C9"/>
	<rect x="6.3" y="20.5" width="35.4" height="16.4" fill="#fff"/>
	<g fill="#A2A5AE">
		<rect x="8.8" y="23.3" width="2.6" height="2.3"/>
		<rect x="12.2" y="23.3" width="2.6" height="2.3"/>
		<rect x="15.7" y="23.3" width="2.6" height="2.3"/>
		<rect x="19.2" y="23.3" width="2.6" height="2.3"/>
		<rect x="22.7" y="23.3" width="2.6" height="2.3"/>
		<rect x="26.2" y="23.3" width="2.6" height="2.3"/>
		<rect x="29.7" y="23.3" width="2.6" height="2.3"/>
		<rect x="33.2" y="23.3" width="2.6" height="2.3"/>
		<rect x="36.6" y="23.3" width="2.6" height="2.3"/>
		<rect x="8.8" y="27" width="2.6" height="2.3"/>
		<rect x="12.2" y="27" width="2.6" height="2.3"/>
		<rect x="15.7" y="27" width="2.6" height="2.3"/>
		<rect x="19.2" y="27" width="2.6" height="2.3"/>
		<rect x="22.7" y="27" width="2.6" height="2.3"/>
		<rect x="26.2" y="27" width="2.6" height="2.3"/>
		<rect x="29.7" y="27" width="2.6" height="2.3"/>
		<rect x="33.2" y="27" width="2.6" height="2.3"/>
		<rect x="36.6" y="27" width="2.6" height="2.3"/>
		<rect x="8.8" y="30.8" width="2.6" height="2.3"/>
		<rect x="12.2" y="30.8" width="2.6" height="2.3"/>
		<rect x="15.7" y="30.8" width="2.6" height="2.3"/>
		<rect x="19.2" y="30.8" width="16.5" height="2.3"/>
		<rect x="36.6" y="30.8" width="2.6" height="2.3"/>
	</g>
	<g fill="#E5E5E5">
		<rect x="8.8" y="23" width="2.6" height="2.3"/>
		<rect x="12.2" y="23" width="2.6" height="2.3"/>
		<rect x="15.7" y="23" width="2.6" height="2.3"/>
		<rect x="19.2" y="23" width="2.6" height="2.3"/>
		<rect x="22.7" y="23" width="2.6" height="2.3"/>
		<rect x="26.2" y="23" width="2.6" height="2.3"/>
		<rect x="29.7" y="23" width="2.6" height="2.3"/>
		<rect x="33.2" y="23" width="2.6" height="2.3"/>
		<rect x="36.6" y="23" width="2.6" height="2.3"/>
		<rect x="8.8" y="26.8" width="2.6" height="2.3"/>
		<rect x="12.2" y="26.8" width="2.6" height="2.3"/>
		<rect x="15.7" y="26.8" width="2.6" height="2.3"/>
		<rect x="19.2" y="26.8" width="2.6" height="2.3"/>
		<rect x="22.7" y="26.8" width="2.6" height="2.3"/>
		<rect x="26.2" y="26.8" width="2.6" height="2.3"/>
		<rect x="29.7" y="26.8" width="2.6" height="2.3"/>
		<rect x="33.2" y="26.8" width="2.6" height="2.3"/>
		<rect x="36.6" y="26.8" width="2.6" height="2.3"/>
		<rect x="8.8" y="30.5" width="2.6" height="2.3"/>
		<rect x="12.2" y="30.5" width="2.6" height="2.3"/>
		<rect x="15.7" y="30.5" width="2.6" height="2.3"/>
		<rect x="19.2" y="30.5" width="16.5" height="2.3"/>
		<rect x="36.6" y="30.5" width="2.6" height="2.3"/>
	</g>
<path d="m26.8 19.9-0.1-1.7s0-0.1 0.1-0.1c0 0 0.1 0 0.1 0.1l-0.1 1.7c0.1 0 0.1 0 0 0z" fill="#282832"/>
<path d="m32.8 19.9c-0.1 0-0.1 0 0 0l-0.1-1.5c0-0.2 0.1-0.4 0.2-0.5l1.1-1.5c0.1-0.1 0.1-0.3 0.1-0.4v-2s0-0.1 0.1-0.1c0 0 0.1 0 0.1 0.1v2c0 0.2-0.1 0.4-0.2 0.5l-1.1 1.5c-0.1 0.1-0.1 0.3-0.1 0.4l-0.1 1.5c0.1 0 0 0 0 0z" fill="#fff"/>
<path d="m30.8 19.9c-0.1 0-0.1 0 0 0l-0.1-3s0-0.1 0.1-0.1c0 0 0.1 0 0.1 0.1l-0.1 3c0.1 0 0 0 0 0z" fill="#282832"/>
<path d="m28.8 19.9-0.1-4.4c0-0.3 0.1-0.6 0.4-0.8l0.8-0.6h0.1v0.1l-0.8 0.6c-0.2 0.1-0.3 0.4-0.3 0.6l-0.1 4.5c0.1 0 0.1 0 0 0z" fill="#fff"/>
<path d="m24.9 19.9-0.1-4.4c0-0.3 0.1-0.6 0.4-0.7l1.4-1.1h0.1v0.1l-1.4 1.1c-0.2 0.1-0.3 0.4-0.3 0.6l-0.1 4.4c0.1 0 0.1 0 0 0z" fill="#fff"/>
<path d="m23 19.9s-0.1 0 0 0l-0.1-4.9s0-0.1 0.1-0.1c0 0 0.1 0 0.1 0.1l-0.1 4.9c0.1 0 0 0 0 0z" fill="#282832"/>
<path d="m21.1 19.9c-0.1 0-0.1 0 0 0l-0.1-8.9c0-0.3 0.1-0.6 0.4-0.8l1.3-0.9h0.1v0.1l-1.3 0.9c-0.2 0.1-0.3 0.4-0.3 0.6l-0.1 9z" fill="#fff"/>
<path d="m19.1 19.9c-0.1 0-0.1 0 0 0l-0.1-4.6c0-0.2-0.1-0.5-0.3-0.6l-1.5-1.1v-0.1h0.1l1.5 1.1c0.2 0.2 0.4 0.5 0.4 0.8l-0.1 4.5c0.1 0 0 0 0 0z" fill="#282832"/>
<path d="m17.2 19.9c-0.1 0-0.1 0 0 0l-0.1-2.7s0-0.1 0.1-0.1c0 0 0.1 0 0.1 0.1l-0.1 2.7z" fill="#fff"/>
<path d="m34.2 14c-0.4 0-0.8-0.4-0.8-0.8s0.4-0.8 0.8-0.8 0.8 0.4 0.8 0.8-0.4 0.8-0.8 0.8zm0-1.5c-0.4 0-0.6 0.3-0.6 0.6 0 0.4 0.3 0.6 0.6 0.6 0.4 0 0.6-0.3 0.6-0.6s-0.3-0.6-0.6-0.6z" fill="#fff"/>
<path d="m15.2 19.9c0.1 0 0.1 0 0 0l0.1-1.5c0-0.2-0.1-0.4-0.2-0.5l-1.1-1.5c-0.1-0.1-0.1-0.3-0.1-0.4v-2s0-0.1-0.1-0.1c0 0-0.1 0-0.1 0.1v2c0 0.2 0.1 0.4 0.2 0.5l1.1 1.5c0.1 0.1 0.1 0.3 0.1 0.4l0.1 1.5c-0.1 0 0 0 0 0z" fill="#282832"/>
<path d="m13 13.2c0-0.4 0.4-0.8 0.8-0.8s0.8 0.4 0.8 0.8-0.4 0.8-0.8 0.8-0.8-0.4-0.8-0.8zm0.2 0c0 0.4 0.3 0.6 0.6 0.6 0.4 0 0.6-0.3 0.6-0.6 0-0.4-0.3-0.6-0.6-0.6-0.3-0.1-0.6 0.2-0.6 0.6z" fill="#282832"/>
<path d="m30.8 17.1c-0.4 0-0.8-0.4-0.8-0.8s0.4-0.8 0.8-0.8 0.8 0.4 0.8 0.8-0.4 0.8-0.8 0.8zm0-1.5c-0.4 0-0.6 0.3-0.6 0.6s0.3 0.6 0.6 0.6 0.6-0.3 0.6-0.6-0.3-0.6-0.6-0.6z" fill="#282832"/>
<path d="m30.7 14.6c-0.4 0-0.8-0.4-0.8-0.8s0.4-0.8 0.8-0.8 0.8 0.4 0.8 0.8c-0.1 0.5-0.4 0.8-0.8 0.8zm0-1.4c-0.4 0-0.6 0.3-0.6 0.6 0 0.4 0.3 0.6 0.6 0.6 0.4 0 0.6-0.3 0.6-0.6s-0.3-0.6-0.6-0.6z" fill="#fff"/>
<path d="m26.8 18.3c-0.4 0-0.8-0.4-0.8-0.8s0.4-0.8 0.8-0.8 0.8 0.4 0.8 0.8-0.3 0.8-0.8 0.8zm0-1.5c-0.4 0-0.6 0.3-0.6 0.6 0 0.4 0.3 0.6 0.6 0.6 0.4 0 0.6-0.3 0.6-0.6 0.1-0.3-0.2-0.6-0.6-0.6z" fill="#282832"/>
<path d="m27.3 14.1c-0.4 0-0.8-0.4-0.8-0.8s0.4-0.8 0.8-0.8 0.8 0.4 0.8 0.8-0.3 0.8-0.8 0.8zm0-1.4c-0.4 0-0.6 0.3-0.6 0.6s0.3 0.6 0.6 0.6 0.6-0.3 0.6-0.6-0.2-0.6-0.6-0.6z" fill="#fff"/>
<path d="m23 15.1c-0.4 0-0.8-0.4-0.8-0.8s0.4-0.8 0.8-0.8 0.8 0.4 0.8 0.8-0.4 0.8-0.8 0.8zm0-1.4c-0.4 0-0.6 0.3-0.6 0.6s0.3 0.6 0.6 0.6 0.6-0.3 0.6-0.6-0.3-0.6-0.6-0.6z" fill="#282832"/>
<path d="m23.3 9.7c-0.4 0-0.8-0.4-0.8-0.8s0.4-0.8 0.8-0.8 0.8 0.4 0.8 0.8-0.3 0.8-0.8 0.8zm0-1.5c-0.4 0-0.6 0.3-0.6 0.6 0 0.4 0.3 0.6 0.6 0.6s0.7-0.2 0.7-0.5c0-0.4-0.3-0.7-0.7-0.7z" fill="#fff"/>
<path d="m16.6 13.9c-0.4 0-0.8-0.4-0.8-0.8s0.4-0.8 0.8-0.8 0.8 0.4 0.8 0.8-0.3 0.8-0.8 0.8zm0-1.5c-0.4 0-0.6 0.3-0.6 0.6 0 0.4 0.3 0.6 0.6 0.6 0.4 0 0.6-0.3 0.6-0.6 0.1-0.3-0.2-0.6-0.6-0.6z" fill="#282832"/>
<path d="m17.2 17.3c-0.4 0-0.8-0.4-0.8-0.8s0.4-0.8 0.8-0.8 0.8 0.4 0.8 0.8-0.4 0.8-0.8 0.8zm0-1.5c-0.4 0-0.6 0.3-0.6 0.6 0 0.4 0.3 0.6 0.6 0.6 0.4 0 0.6-0.3 0.6-0.6s-0.3-0.6-0.6-0.6z" fill="#fff"/>
		<path d="m32.3 20.5h1.1c0.1 0 0.2-0.1 0.2-0.2v-0.6c0-0.3-0.3-0.6-0.6-0.6h-0.2c-0.3 0-0.6 0.3-0.6 0.6v0.6c-0.1 0.2 0 0.2 0.1 0.2z" fill="#E7735A"/>
		<path d="m30.3 20.5h1.1c0.1 0 0.2-0.1 0.2-0.2v-0.6c0-0.3-0.3-0.6-0.6-0.6h-0.2c-0.3 0-0.6 0.3-0.6 0.6v0.6c-0.1 0.2 0 0.2 0.1 0.2z" fill="#E7735A"/>
		<path d="m28.3 20.5h1.1c0.1 0 0.2-0.1 0.2-0.2v-0.6c0-0.3-0.3-0.6-0.6-0.6h-0.2c-0.3 0-0.6 0.3-0.6 0.6v0.6c0 0.2 0 0.2 0.1 0.2z" fill="#E7735A"/>
		<path d="m26.3 20.5h1.1c0.1 0 0.2-0.1 0.2-0.2v-0.6c0-0.3-0.3-0.6-0.6-0.6h-0.2c-0.3 0-0.6 0.3-0.6 0.6v0.6c0 0.2 0 0.2 0.1 0.2z" fill="#E7735A"/>
		<path d="m24.4 20.5h1.1c0.1 0 0.2-0.1 0.2-0.2v-0.6c0-0.3-0.3-0.6-0.6-0.6h-0.2c-0.3 0-0.6 0.3-0.6 0.6v0.6c0 0.2 0 0.2 0.1 0.2z" fill="#E7735A"/>
		<path d="m22.5 20.5h1.1c0.1 0 0.2-0.1 0.2-0.2v-0.6c0-0.3-0.3-0.6-0.6-0.6h-0.2c-0.3 0-0.6 0.3-0.6 0.6v0.6c-0.1 0.2 0 0.2 0.1 0.2z" fill="#E7735A"/>
		<path d="m20.5 20.5h1.1c0.1 0 0.2-0.1 0.2-0.2v-0.6c0-0.3-0.3-0.6-0.6-0.6h-0.2c-0.3 0-0.6 0.3-0.6 0.6v0.6c0 0.2 0.1 0.2 0.1 0.2z" fill="#E7735A"/>
		<path d="m18.6 20.5h1.1c0.1 0 0.2-0.1 0.2-0.2v-0.6c0-0.3-0.3-0.6-0.6-0.6h-0.3c-0.3 0-0.6 0.3-0.6 0.6v0.6c0 0.2 0.1 0.2 0.2 0.2z" fill="#E7735A"/>
		<path d="m16.6 20.5h1.1c0.1 0 0.2-0.1 0.2-0.2v-0.6c0-0.3-0.3-0.6-0.6-0.6h-0.2c-0.3 0-0.6 0.3-0.6 0.6v0.6c0 0.2 0 0.2 0.1 0.2z" fill="#E7735A"/>
		<path d="m14.7 20.5h1.1c0.1 0 0.2-0.1 0.2-0.2v-0.6c0-0.3-0.3-0.6-0.6-0.6h-0.2c-0.3 0-0.6 0.3-0.6 0.6v0.6c-0.1 0.2 0 0.2 0.1 0.2z" fill="#E7735A"/>
<path d="m22.8 33.5c-0.2-0.2-0.6-0.2-0.8 0.1l-1.1 1.2-0.3 0.3s-0.1 0.1-0.2 0.1c-0.2 0-0.4-0.1-0.4-0.3v-6.1c0-0.3-0.3-0.6-0.6-0.6s-0.6 0.3-0.6 0.6v3.2c0 0.1 0 0.2-0.1 0.2s-0.1 0.1-0.2 0c-0.1 0-0.1-0.1-0.1-0.2v-3.8c0-0.3-0.3-0.6-0.6-0.6s-0.6 0.3-0.6 0.6v3.8c0 0.1 0 0.1-0.1 0.2-0.1 0-0.2 0.1-0.3 0 0 0-0.1-0.1-0.1-0.2v-3.2c0-0.4-0.4-0.7-0.7-0.6s-0.5 0.3-0.5 0.6v3.3c0 0.1 0 0.1-0.1 0.2h-0.1c-0.1 0-0.1-0.1-0.1-0.2v-2c0-0.2-0.2-0.4-0.4-0.5-0.3 0-0.5 0.2-0.5 0.5v6.9c0 0.2 0.1 1.1 0.8 1.6v0.4h4.5v-0.8l1.1-1.2 2.4-2.7c0-0.3-0.1-0.7-0.3-0.8z" fill="#E2AC83"/>
<rect transform="matrix(6.1232e-17 -1 1 6.1232e-17 -22.076 56.371)" x="16.6" y="36.7" width="1" height="5" fill="#FCFCFC"/>
<rect transform="matrix(6.1232e-17 -1 1 6.1232e-17 -23.617 57.876)" x="16" y="37.9" width="2.2" height="5.6" fill="#78C8C9"/>
<rect transform="matrix(6.1232e-17 -1 1 6.1232e-17 -22.188 59.305)" x="17.4" y="39.3" width="2.2" height="2.8" fill="#29A4A9"/>
<path d="m25 33.5c0.2-0.2 0.6-0.2 0.8 0.1l1.1 1.2 0.3 0.3s0.1 0.1 0.2 0.1c0.2 0 0.4-0.1 0.4-0.3v-6.1c0-0.3 0.3-0.6 0.6-0.6s0.6 0.3 0.6 0.6v3.2c0 0.1 0 0.2 0.1 0.2s0.1 0.1 0.2 0c0.1 0 0.1-0.1 0.1-0.2v-3.8c0-0.3 0.3-0.6 0.6-0.6s0.6 0.3 0.6 0.6v3.8c0 0.1 0 0.1 0.1 0.2 0.1 0 0.2 0.1 0.3 0 0 0 0.1-0.1 0.1-0.2v-3.2c0-0.4 0.4-0.7 0.7-0.6s0.5 0.3 0.5 0.6v3.3c0 0.1 0 0.1 0.1 0.2h0.1c0.1 0 0.1-0.1 0.1-0.2v-2c0-0.2 0.2-0.4 0.4-0.5 0.3 0 0.5 0.2 0.5 0.5v6.9c0 0.2-0.1 1.1-0.8 1.6v0.4h-4.5v-0.8l-0.9-1.2-2.4-2.7c-0.2-0.3-0.2-0.7 0.1-0.8z" fill="#E2AC83"/>
<rect transform="matrix(6.1232e-17 -1 1 6.1232e-17 -8.6126 69.835)" x="30.1" y="36.7" width="1" height="5" fill="#FCFCFC"/>
<rect transform="matrix(6.1232e-17 -1 1 6.1232e-17 -10.118 71.375)" x="29.5" y="37.9" width="2.2" height="5.6" fill="#78C8C9"/>
<rect transform="matrix(6.1232e-17 -1 1 6.1232e-17 -11.547 69.946)" x="28.1" y="39.3" width="2.2" height="2.8" fill="#29A4A9"/>
</svg>