<svg xmlns="http://www.w3.org/2000/svg" width="48" height="48" viewBox="0 0 48 48"><path d="M29.5 25.5h-11c-4.7 0-8.5-3.8-8.5-8.5v-2.3c0-4.7 3.8-8.5 8.5-8.5h11c4.7 0 8.5 3.8 8.5 8.5V17c0 4.7-3.8 8.5-8.5 8.5z" fill="#78C8C9"/><path fill="#fff" d="M6.3 20.5h35.4v16.4H6.3z"/><path d="M8.8 23.3h2.6v2.3H8.8zm3.4 0h2.6v2.3h-2.6zm3.5 0h2.6v2.3h-2.6zm3.5 0h2.6v2.3h-2.6zm3.5 0h2.6v2.3h-2.6zm3.5 0h2.6v2.3h-2.6zm3.5 0h2.6v2.3h-2.6zm3.5 0h2.6v2.3h-2.6zm3.4 0h2.6v2.3h-2.6zM8.8 27h2.6v2.3H8.8zm3.4 0h2.6v2.3h-2.6zm3.5 0h2.6v2.3h-2.6zm3.5 0h2.6v2.3h-2.6zm3.5 0h2.6v2.3h-2.6zm3.5 0h2.6v2.3h-2.6zm3.5 0h2.6v2.3h-2.6zm3.5 0h2.6v2.3h-2.6zm3.4 0h2.6v2.3h-2.6zM8.8 30.8h2.6v2.3H8.8zm3.4 0h2.6v2.3h-2.6zm3.5 0h2.6v2.3h-2.6zm3.5 0h16.5v2.3H19.2zm17.4 0h2.6v2.3h-2.6z" fill="#A2A5AE"/><path d="M8.8 23h2.6v2.3H8.8zm3.4 0h2.6v2.3h-2.6zm3.5 0h2.6v2.3h-2.6zm3.5 0h2.6v2.3h-2.6zm3.5 0h2.6v2.3h-2.6zm3.5 0h2.6v2.3h-2.6zm3.5 0h2.6v2.3h-2.6zm3.5 0h2.6v2.3h-2.6zm3.4 0h2.6v2.3h-2.6zM8.8 26.8h2.6v2.3H8.8zm3.4 0h2.6v2.3h-2.6zm3.5 0h2.6v2.3h-2.6zm3.5 0h2.6v2.3h-2.6zm3.5 0h2.6v2.3h-2.6zm3.5 0h2.6v2.3h-2.6zm3.5 0h2.6v2.3h-2.6zm3.5 0h2.6v2.3h-2.6zm3.4 0h2.6v2.3h-2.6zM8.8 30.5h2.6v2.3H8.8zm3.4 0h2.6v2.3h-2.6zm3.5 0h2.6v2.3h-2.6zm3.5 0h16.5v2.3H19.2zm17.4 0h2.6v2.3h-2.6z" fill="#E5E5E5"/><path d="M26.8 19.9l-.1-1.7s0-.1.1-.1c0 0 .1 0 .1.1l-.1 1.7c.1 0 .1 0 0 0z" fill="#282832"/><path d="M32.8 19.9c-.1 0-.1 0 0 0l-.1-1.5c0-.2.1-.4.2-.5l1.1-1.5c.1-.1.1-.3.1-.4v-2s0-.1.1-.1c0 0 .1 0 .1.1v2c0 .2-.1.4-.2.5L33 18c-.1.1-.1.3-.1.4l-.1 1.5c.1 0 0 0 0 0z" fill="#fff"/><path d="M30.8 19.9c-.1 0-.1 0 0 0l-.1-3s0-.1.1-.1c0 0 .1 0 .1.1l-.1 3c.1 0 0 0 0 0z" fill="#282832"/><path d="M28.8 19.9l-.1-4.4c0-.3.1-.6.4-.8l.8-.6h.1v.1l-.8.6c-.2.1-.3.4-.3.6l-.1 4.5c.1 0 .1 0 0 0zm-3.9 0l-.1-4.4c0-.3.1-.6.4-.7l1.4-1.1h.1v.1l-1.4 1.1c-.2.1-.3.4-.3.6l-.1 4.4c.1 0 .1 0 0 0z" fill="#fff"/><path d="M23 19.9s-.1 0 0 0l-.1-4.9s0-.1.1-.1c0 0 .1 0 .1.1l-.1 4.9c.1 0 0 0 0 0z" fill="#282832"/><path d="M21.1 19.9c-.1 0-.1 0 0 0L21 11c0-.3.1-.6.4-.8l1.3-.9h.1v.1l-1.3.9c-.2.1-.3.4-.3.6l-.1 9z" fill="#fff"/><path d="M19.1 19.9c-.1 0-.1 0 0 0l-.1-4.6c0-.2-.1-.5-.3-.6l-1.5-1.1v-.1h.1l1.5 1.1c.2.2.4.5.4.8l-.1 4.5c.1 0 0 0 0 0z" fill="#282832"/><path d="M17.2 19.9c-.1 0-.1 0 0 0l-.1-2.7s0-.1.1-.1c0 0 .1 0 .1.1l-.1 2.7zm17-5.9c-.4 0-.8-.4-.8-.8s.4-.8.8-.8.8.4.8.8-.4.8-.8.8zm0-1.5c-.4 0-.6.3-.6.6 0 .4.3.6.6.6.4 0 .6-.3.6-.6s-.3-.6-.6-.6z" fill="#fff"/><path d="M15.2 19.9c.1 0 .1 0 0 0l.1-1.5c0-.2-.1-.4-.2-.5L14 16.4c-.1-.1-.1-.3-.1-.4v-2s0-.1-.1-.1c0 0-.1 0-.1.1v2c0 .2.1.4.2.5L15 18c.1.1.1.3.1.4l.1 1.5c-.1 0 0 0 0 0z" fill="#282832"/><path d="M13 13.2c0-.4.4-.8.8-.8s.8.4.8.8-.4.8-.8.8-.8-.4-.8-.8zm.2 0c0 .4.3.6.6.6.4 0 .6-.3.6-.6 0-.4-.3-.6-.6-.6-.3-.1-.6.2-.6.6zm17.6 3.9c-.4 0-.8-.4-.8-.8s.4-.8.8-.8.8.4.8.8-.4.8-.8.8zm0-1.5c-.4 0-.6.3-.6.6s.3.6.6.6.6-.3.6-.6-.3-.6-.6-.6z" fill="#282832"/><path d="M30.7 14.6c-.4 0-.8-.4-.8-.8s.4-.8.8-.8.8.4.8.8c-.1.5-.4.8-.8.8zm0-1.4c-.4 0-.6.3-.6.6 0 .4.3.6.6.6.4 0 .6-.3.6-.6s-.3-.6-.6-.6z" fill="#fff"/><path d="M26.8 18.3c-.4 0-.8-.4-.8-.8s.4-.8.8-.8.8.4.8.8-.3.8-.8.8zm0-1.5c-.4 0-.6.3-.6.6 0 .4.3.6.6.6.4 0 .6-.3.6-.6.1-.3-.2-.6-.6-.6z" fill="#282832"/><path d="M27.3 14.1c-.4 0-.8-.4-.8-.8s.4-.8.8-.8.8.4.8.8-.3.8-.8.8zm0-1.4c-.4 0-.6.3-.6.6s.3.6.6.6.6-.3.6-.6-.2-.6-.6-.6z" fill="#fff"/><path d="M23 15.1c-.4 0-.8-.4-.8-.8s.4-.8.8-.8.8.4.8.8-.4.8-.8.8zm0-1.4c-.4 0-.6.3-.6.6s.3.6.6.6.6-.3.6-.6-.3-.6-.6-.6z" fill="#282832"/><path d="M23.3 9.7c-.4 0-.8-.4-.8-.8s.4-.8.8-.8.8.4.8.8-.3.8-.8.8zm0-1.5c-.4 0-.6.3-.6.6 0 .4.3.6.6.6s.7-.2.7-.5c0-.4-.3-.7-.7-.7z" fill="#fff"/><path d="M16.6 13.9c-.4 0-.8-.4-.8-.8s.4-.8.8-.8.8.4.8.8-.3.8-.8.8zm0-1.5c-.4 0-.6.3-.6.6 0 .4.3.6.6.6.4 0 .6-.3.6-.6.1-.3-.2-.6-.6-.6z" fill="#282832"/><path d="M17.2 17.3c-.4 0-.8-.4-.8-.8s.4-.8.8-.8.8.4.8.8-.4.8-.8.8zm0-1.5c-.4 0-.6.3-.6.6 0 .4.3.6.6.6.4 0 .6-.3.6-.6s-.3-.6-.6-.6z" fill="#fff"/><path d="M32.3 20.5h1.1c.1 0 .2-.1.2-.2v-.6c0-.3-.3-.6-.6-.6h-.2c-.3 0-.6.3-.6.6v.6c-.1.2 0 .2.1.2zm-2 0h1.1c.1 0 .2-.1.2-.2v-.6c0-.3-.3-.6-.6-.6h-.2c-.3 0-.6.3-.6.6v.6c-.1.2 0 .2.1.2zm-2 0h1.1c.1 0 .2-.1.2-.2v-.6c0-.3-.3-.6-.6-.6h-.2c-.3 0-.6.3-.6.6v.6c0 .2 0 .2.1.2zm-2 0h1.1c.1 0 .2-.1.2-.2v-.6c0-.3-.3-.6-.6-.6h-.2c-.3 0-.6.3-.6.6v.6c0 .2 0 .2.1.2zm-1.9 0h1.1c.1 0 .2-.1.2-.2v-.6c0-.3-.3-.6-.6-.6h-.2c-.3 0-.6.3-.6.6v.6c0 .2 0 .2.1.2zm-1.9 0h1.1c.1 0 .2-.1.2-.2v-.6c0-.3-.3-.6-.6-.6H23c-.3 0-.6.3-.6.6v.6c-.1.2 0 .2.1.2zm-2 0h1.1c.1 0 .2-.1.2-.2v-.6c0-.3-.3-.6-.6-.6H21c-.3 0-.6.3-.6.6v.6c0 .2.1.2.1.2zm-1.9 0h1.1c.1 0 .2-.1.2-.2v-.6c0-.3-.3-.6-.6-.6H19c-.3 0-.6.3-.6.6v.6c0 .2.1.2.2.2zm-2 0h1.1c.1 0 .2-.1.2-.2v-.6c0-.3-.3-.6-.6-.6h-.2c-.3 0-.6.3-.6.6v.6c0 .2 0 .2.1.2zm-1.9 0h1.1c.1 0 .2-.1.2-.2v-.6c0-.3-.3-.6-.6-.6h-.2c-.3 0-.6.3-.6.6v.6c-.1.2 0 .2.1.2z" fill="#E7735A"/><path d="M22.8 33.5c-.2-.2-.6-.2-.8.1l-1.1 1.2-.3.3s-.1.1-.2.1c-.2 0-.4-.1-.4-.3v-6.1c0-.3-.3-.6-.6-.6s-.6.3-.6.6V32c0 .1 0 .2-.1.2s-.1.1-.2 0c-.1 0-.1-.1-.1-.2v-3.8c0-.3-.3-.6-.6-.6s-.6.3-.6.6V32c0 .1 0 .1-.1.2-.1 0-.2.1-.3 0 0 0-.1-.1-.1-.2v-3.2c0-.4-.4-.7-.7-.6s-.5.3-.5.6v3.3c0 .1 0 .1-.1.2h-.1c-.1 0-.1-.1-.1-.2v-2c0-.2-.2-.4-.4-.5-.3 0-.5.2-.5.5V37c0 .2.1 1.1.8 1.6v.4h4.5v-.8l1.1-1.2 2.4-2.7c0-.3-.1-.7-.3-.8z" fill="#E2AC83"/><path fill="#FCFCFC" d="M14.624 39.771v-1h5v1z"/><path fill="#78C8C9" d="M14.283 41.876v-2.2h5.6v2.2z"/><path fill="#29A4A9" d="M17.112 41.905v-2.2h2.8v2.2z"/><path d="M25 33.5c.2-.2.6-.2.8.1l1.1 1.2.3.3s.1.1.2.1c.2 0 .4-.1.4-.3v-6.1c0-.3.3-.6.6-.6s.6.3.6.6V32c0 .1 0 .2.1.2s.1.1.2 0c.1 0 .1-.1.1-.2v-3.8c0-.3.3-.6.6-.6s.6.3.6.6V32c0 .1 0 .1.1.2.1 0 .2.1.3 0 0 0 .1-.1.1-.2v-3.2c0-.4.4-.7.7-.6s.5.3.5.6v3.3c0 .1 0 .1.1.2h.1c.1 0 .1-.1.1-.2v-2c0-.2.2-.4.4-.5.3 0 .5.2.5.5V37c0 .2-.1 1.1-.8 1.6v.4h-4.5v-.8l-.9-1.2-2.4-2.7c-.2-.3-.2-.7.1-.8z" fill="#E2AC83"/><path fill="#FCFCFC" d="M28.087 39.735v-1h5v1z"/><path fill="#78C8C9" d="M27.782 41.875v-2.2h5.6v2.2z"/><path fill="#29A4A9" d="M27.753 41.846v-2.2h2.8v2.2z"/></svg>