<svg id="Layer_1" xmlns="http://www.w3.org/2000/svg" width="225" height="225" viewBox="0 0 225 225"><style>.st0{opacity:.2}.st0,.st1,.st2{fill:none;stroke:#24fc89;enable-background:new}.st1{opacity:.1}.st2{opacity:5e-2}.st3{fill:#27fd8b}.st4{fill:#171717}</style><circle id="Эллипс_1_копия_3" class="st0" cx="112.5" cy="112.5" r="16"/><circle id="Эллипс_1_копия_3-2" class="st0" cx="112" cy="112" r="33.5"/><circle id="Эллипс_1_копия_4" class="st1" cx="112.5" cy="112.5" r="60.3"/><circle id="Эллипс_1_копия_5" class="st2" cx="112.5" cy="112.5" r="112"/><path id="Эллипс_2" class="st3" d="M112.5 72.5c8.8-.1 15.9 7 16 15.7 0 8.7-16 28.2-16 28.2s-16-19.5-16-28.2c.1-8.7 7.2-15.8 16-15.7z"/><path id="Фигура_31" class="st4" d="M120.5 89.7c-.5 0-.9.2-1.2.6l-.5.5v-4.3c0-3.4-3.3-4.7-6.3-4.7s-6.3 1.3-6.3 4.7v4.3l-.5-.5c-.3-.4-.8-.6-1.2-.6-.6 0-1.1.5-1.1 1.1 0 1.2 3.1 3.2 4.1 3.7 3.2 1.5 6.9 1.5 10.1 0 1-.5 4.1-2.5 4.1-3.7-.1-.6-.6-1.1-1.2-1.1z"/></svg>