<?xml version="1.0" encoding="utf-8"?>
<!-- Generator: Adobe Illustrator 23.0.3, SVG Export Plug-In . SVG Version: 6.00 Build 0)  -->
<svg version="1.2" baseProfile="tiny" id="Layer_1" xmlns="http://www.w3.org/2000/svg" xmlns:xlink="http://www.w3.org/1999/xlink"
	 x="0px" y="0px" viewBox="0 0 14.2 14.2" xml:space="preserve">
<path id="telegram" d="M11.5,13.5c-0.1,0-0.2,0-0.3-0.1l-3.6-2.4l-1.9,1.4c-0.2,0.1-0.3,0.1-0.5,0.1C5,12.3,4.8,12.2,4.8,12l-1-3.6
	L0.4,7.1C0.2,7,0,6.8,0,6.5C0,6.3,0.1,6.1,0.4,6l13.1-5.2c0.1,0,0.1,0,0.2,0c0,0,0,0,0.1,0c0.1,0,0.3,0.1,0.4,0.2c0,0,0,0,0,0
	c0.1,0.1,0.1,0.2,0.1,0.3c0,0,0,0.1,0,0.1c0,0,0,0,0,0.1L12,13c0,0.2-0.2,0.3-0.3,0.4C11.6,13.5,11.5,13.5,11.5,13.5z M7.9,9.8
	l3.2,2.2l1.7-9l-6.2,6L7.9,9.8C7.9,9.8,7.9,9.8,7.9,9.8z M5.2,9.3l0.4,1.6l0.9-0.7L5.4,9.5C5.3,9.4,5.3,9.4,5.2,9.3z M2.1,6.5
	l2.4,0.9c0.2,0.1,0.3,0.2,0.3,0.4l0.3,1.1c0-0.1,0.1-0.3,0.2-0.3l5.9-5.7L2.1,6.5z"/>
</svg>
