<?xml version="1.0" encoding="utf-8"?>
<!-- Generator: Adobe Illustrator 23.0.3, SVG Export Plug-In . SVG Version: 6.00 Build 0)  -->
<svg version="1.1" id="Layer_1" xmlns="http://www.w3.org/2000/svg" xmlns:xlink="http://www.w3.org/1999/xlink" x="0px" y="0px"
	 viewBox="0 0 578.6 335.6" style="enable-background:new 0 0 578.6 335.6;" xml:space="preserve">
<style type="text/css">
	.st0{fill:#1D1819;}
	.st1{fill:#E52129;}
	.st2{fill:#8A8788;}
</style>
<path class="st0" d="M126.1,252.9c2.6,0,5.2,0,7.8-0.1c0.8,0,0.8,0.4,0.8,0.9c0,4,0,8,0,12c0,3.8,0,7.6,0,11.5
	c0.5-0.2,0.6-0.6,0.8-0.9c5.1-7.5,10.2-15.1,15.3-22.7c0.4-0.6,0.8-0.9,1.6-0.9c2.5,0.1,5,0,7.5,0c0,0.6-0.4,0.9-0.6,1.2
	c-4.2,6.2-8.3,12.3-12.5,18.5c-0.6,0.8-0.6,1.4-0.1,2.2c4.6,7.1,9.2,14.2,13.8,21.2c0.2,0.3,0.4,0.6,0.7,1.2c-2.1,0-4.1,0-6.1,0
	c-1.3,0-2.9,0.4-3.9-0.2c-1-0.5-1.4-2-2.1-3.1c-2.7-4.4-5.5-8.7-8.2-13.1c0-0.1-0.1-0.1-0.3-0.3c-1.5,2-3,4.1-4.6,6.1
	c-1,1.3-1.5,2.6-1.4,4.2c0.1,1.8,0,3.6,0,5.5c0,0.7-0.2,0.9-0.9,0.9c-2.6,0-5.1,0-7.7,0C126.1,282.5,126.1,267.7,126.1,252.9z"/>
<path class="st0" d="M451.9,334.5c-0.3,0-0.7,0-1,0c-1.8,0-1.8,0-2.3-1.7c-0.2-0.1-0.3,0.1-0.5,0.2c-1.7,1.8-4.7,2.3-6.8,1.2
	c-1.3-0.7-2-1.8-2.1-3.2c-0.4-3.4-0.1-6.8-0.2-10.2c0-0.4,0.2-0.6,0.6-0.5c0,0,0.1,0,0.1,0c3.2-0.3,3.2-0.3,3.2,2.9
	c0,1.9,0,3.8,0,5.7c0,1.8,0.7,2.7,2.1,2.8c1.6,0.1,2.7-0.8,3-2.5c0.5-2.6,0.2-5.2,0.2-7.8c0-1,0.2-1.3,1.2-1.2
	c0.8,0.1,1.7,0,2.6,0.1C451.9,325,451.9,329.8,451.9,334.5z"/>
<path class="st1" d="M376.2,152.1c-2.2-9.5-10.4-16.8-20.1-17.8c-3.4-0.4-6.8-0.1-10.1-0.1c-0.8,0-1-0.2-1-1c0-3.4,0-6.8,0-10.3
	c0-1.9-0.8-3.1-2.5-3.8c-1.1-0.5-2.3-0.5-3.5-0.5c-20.6,0-41.2,0-61.9,0s-41.2,0-61.9,0c-0.7,0-1.5,0-2.2,0.1
	c-2.4,0.4-3.6,1.7-3.6,4.2c0,10.9,0,21.8,0,32.7c0,5.3,0.8,10.6,2.2,15.7c0.2,0.7,0.5,1.1,1,1.5c23.8,17.8,49.9,30.9,78.4,39.2
	c0.6,0.2,1.1,0.2,1.7,0.1c4.6-0.9,9.1-2,13.5-3.5c4.2-1.4,8.4-2.7,12.1-5.3c8.2-5.6,14.5-13,19.3-21.6c0.4-0.7,0.9-1,1.7-1
	c3.5,0.1,7,0,10.5,0c2.2,0,4.4,0.1,6.6-0.2C370.3,178.7,379.3,165.6,376.2,152.1z M367.3,158.6c-0.6,6.7-6.6,12-13.7,12.2
	c-3.6,0.1-7.1,0-10.7,0c-0.7,0-1-0.1-0.7-0.9c2.2-6.4,3-13,2.7-18.8c0-3.1,0-5.2,0-7.3c0-0.4-0.1-0.8,0.5-0.8
	c3.6,0.1,7.3-0.4,10.9,0.3C363.5,144.8,368,151.2,367.3,158.6z"/>
<path class="st0" d="M143.8,106.7c1.9,3,3.6,5.9,5.6,8.7c35.1,50.6,81.9,84.9,141.4,101.4c11.9,3.3,24.1,5.5,36.4,7
	c16.1,1.9,32.2,2.4,48.4,1.5c20.5-1,40.7-4.1,60.6-8.7c0.1,0,0.2,0,0.4,0.1c-1.3,0.6-2.6,1.2-3.9,1.7c-1.3,0.6-2.6,1.1-4,1.7
	c-19.2,7.7-39.1,13.2-59.6,16.5c-15.7,2.6-31.5,3.8-47.4,3.2c-53.3-1.9-98.1-22.1-133.8-61.9c-16.9-18.8-29.9-40.2-40.6-63
	c-1.2-2.6-2.3-5.2-3.5-7.7C143.8,107.1,143.8,107,143.8,106.7z"/>
<path class="st0" d="M327.8-0.8c-3.3,2.7-6.5,5.6-9.3,8.8c-4.5,5.2-7.6,11-8.6,17.9c-0.9,6.1-0.2,12,1.4,17.8
	c2,7.2,5.1,13.9,8.7,20.5c2.3,4.3,4.2,8.8,5,13.7c1.5,9-1.7,16-9.2,21c-5.3,3.5-11.2,5.3-17.3,6.3c-0.9,0.2-1.8,0.2-2.9,0.4
	c0.2-0.2,0.3-0.3,0.4-0.4c7.8-5.5,10.6-13.2,8-22.5c-1.2-4.3-3.1-8.3-5.7-11.9c-4.7-6.5-8.6-13.4-10.7-21.3
	c-3.4-13.3,0.1-24.6,10-34c6.8-6.5,14.9-10.9,23.6-14.3C323.4,0.5,325.5-0.3,327.8-0.8z"/>
<path class="st0" d="M358.3,275.6c-0.9,2.7-1.6,5.1-2.4,7.5c-1.4,4.4-2.8,8.8-4.1,13.2c-0.2,0.7-0.5,1-1.3,1c-1.6-0.1-3.3,0-4.9,0
	c-0.6,0-0.9-0.1-1-0.7c-3.2-11.3-6.3-22.7-9.5-34c-0.2-0.8,0-0.8,0.7-0.8c2.1,0,4.3,0.1,6.4,0c1.1-0.1,1.4,0.4,1.6,1.4
	c1.5,6.9,3.1,13.8,4.7,20.8c0,0.2,0.1,0.4,0.3,0.9c1.1-3.9,2.2-7.6,3.2-11.2c0.8-2.7,1.6-5.4,2.3-8.2c0.2-0.8,0.5-1.5,1-2.2
	c1.7-2.1,4.9-1.9,6.2,0.5c1.2,2.2,1.6,4.8,2.3,7.2c1.3,4.3,2.5,8.6,3.7,12.8c0.1,0.3,0.1,0.6,0.4,0.8c1.7-7.3,3.3-14.6,4.9-21.9
	c0.2-0.8,0.5-1,1.2-1c2.2,0,4.3,0,6.5,0c0.7,0,1,0.1,0.8,0.9c-3.2,11.3-6.3,22.5-9.4,33.8c-0.2,0.6-0.4,0.9-1.1,0.8
	c-1.7-0.1-3.3-0.1-5,0c-0.7,0-0.9-0.3-1.1-0.8C362.6,289.6,360.5,282.8,358.3,275.6z"/>
<path class="st0" d="M260.5,261.5c-1.7,0.2-3.3,0.2-5,0.3c-4.1,0.3-8.2,0-12.2,0.2c-5,0.3-8.2,2.9-9.3,7.8
	c-1.2,5.2-1.2,10.5-0.2,15.7c1.1,5.7,4.8,8.7,10.3,8.9c0.7,0,1.3-0.1,1.9-0.5c2.5-1.4,5-2.7,7.8-4.2c-0.2,2.6-0.2,4.9-0.5,7.3
	c-0.2,2.1-1.4,3.3-3.5,3.7c-1.7,0.3-3.3,0.2-5-0.3c-1.1-0.3-2-1-2.1-2.2c-0.1-0.6-0.4-0.6-0.9-0.6c-1.9,0.1-3.9,0.3-5.8,0.3
	c-0.9,0-1,0.4-0.9,1.1c0.4,3.7,2.4,6.1,5.8,7.3c4.1,1.6,8.4,1.7,12.7,0.6c4.7-1.3,7.5-4.7,7.8-9.6c0.1-2,0.1-4,0.1-6.1
	c0-9.6,0-19.2,0-28.9C261.6,261.6,261.5,261.4,260.5,261.5z M253.5,276.1c0,1.9,0,3.9,0,5.8c0,0.6-0.2,1-0.8,1.2
	c-1.3,0.6-2.6,1.3-3.9,2c-3.3,1.7-6.7,0.1-7.3-3.6c-0.5-2.8-0.3-5.7,0.4-8.4c0.7-2.7,2.4-3.9,5.2-3.9c1.9,0,3.7,0,5.6,0
	c0.7,0,0.9,0.2,0.9,0.8C253.5,272.1,253.5,274.1,253.5,276.1z"/>
<path class="st0" d="M284.7,105.9c1.1-1.7,1.9-3.5,2.3-5.4c0.5-3.2-0.3-6-2-8.6c-1.5-2.4-3.5-4.4-5.8-6c-3.3-2.3-6.4-4.8-8.9-7.9
	c-3.4-4.1-5.5-8.8-5.4-14.2c0.1-2.7,0.7-5.3,1.8-7.8c3.1-7.2,8.4-12.4,14.7-17c-0.5,0.8-1,1.7-1.5,2.5c-5.5,9.6-4.7,18.7,2,27.4
	c2.6,3.3,5.5,6.2,8.6,9c2.2,2,4.2,4.3,5.5,7c2.2,4.4,2,8.6-0.8,12.7C292.4,101.3,288.8,103.9,284.7,105.9z"/>
<path class="st0" d="M278.8,279.6c2.9-4.2,5.7-8.5,8.6-12.7c0.7-1.1,1.4-2.1,2.1-3.2c0.2-0.4,0.5-0.6,1-0.6c2.8,0,5.5,0,8.3,0
	c0.1,0.5-0.2,0.7-0.4,0.9c-3.4,4.7-6.8,9.4-10.2,14c-0.6,0.7-0.6,1.2,0,2c4.1,5.3,8.1,10.7,12.2,16c0.3,0.3,0.5,0.7,0.9,1.2
	c-3.2,0-6.3,0-9.4,0c-0.5,0-0.6-0.4-0.8-0.7c-2.7-3.6-5.3-7.2-8-10.7c-0.3-0.3-0.5-0.7-0.8-1.1c-1.2,1.6-2.3,3.2-3.4,4.8
	c-0.3,0.4-0.2,0.7-0.2,1.1c0,1.9,0,3.8,0,5.7c0,0.7-0.1,1-0.9,1c-2.1-0.1-4.1-0.1-6.2,0c-0.8,0-1-0.2-1-1c0-9.3,0-18.6,0-27.8
	c0-5.6,0-11.3,0-16.9c0-0.8,0.2-1.2,1.1-1.1c1.9,0.1,3.7,0.1,5.6,0c1.1-0.1,1.5,0.2,1.5,1.4c-0.1,8.9,0,17.9,0,26.8c0,0.3,0,0.7,0,1
	C278.6,279.6,278.7,279.6,278.8,279.6z"/>
<path class="st0" d="M139.1,127.4c4.7,12.5,11,24.3,18.4,35.4c26.3,39.4,62.3,65.9,107.4,80.1c0.3,0.1,0.6,0.2,1,0.4
	c-1.9-0.1-3.7-0.5-5.5-0.9c-28.4-6.5-53.7-19.1-75.4-38.7c-19.8-17.9-33.6-39.8-42.5-64.9c-1.3-3.7-2.5-7.4-3.5-11.2
	C138.8,127.4,138.9,127.3,139.1,127.4z"/>
<path class="st0" d="M193.5,272.3c-1.1-6-4.4-9.4-9.9-10.6c-2.3-0.5-4.6-0.5-6.8-0.3c-6.1,0.4-10.2,3.8-11.6,9.8
	c-1.4,5.8-1.3,11.6,0.1,17.3c1.1,4.8,4,8,9,9.2c2.9,0.7,5.9,0.7,8.9,0.2c5.7-0.9,9-4.3,10.3-9.8c0.6-2.7,0.7-5.5,0.8-8.4
	C194,277.2,193.9,274.7,193.5,272.3z M185.5,285.6c-0.8,3.3-2.7,5-6,5.1c-3.3,0.2-5.7-1.4-6.6-4.6c-1.2-4.3-1.2-8.7-0.2-13
	c1.1-4.5,6.8-6.3,10.5-3.5c1.6,1.2,2.1,2.9,2.4,4.7c0.2,1.7,0.2,3.4,0.2,5.1C186,281.6,186,283.6,185.5,285.6z"/>
<path class="st0" d="M332.1,272.3c-1.1-6-4.3-9.4-9.9-10.6c-2.3-0.5-4.7-0.5-7.1-0.3c-6.2,0.6-10,3.8-11.5,9.8
	c-1.4,5.8-1.3,11.6,0.1,17.3c1.2,5,4.3,8.1,9.4,9.2c2.7,0.5,5.4,0.6,8.1,0.2c5.9-0.9,9.3-4,10.6-9.8c0.6-2.8,0.8-5.6,0.8-8.6
	C332.7,277.2,332.6,274.7,332.1,272.3z M324.2,285.6c-0.7,3.3-2.7,5-6,5.2c-3.3,0.2-5.7-1.3-6.6-4.6c-1.2-4.3-1.2-8.7-0.2-13
	c1.1-4.5,6.8-6.3,10.5-3.6c1.6,1.2,2.2,3,2.4,4.8c0.2,1.7,0.2,3.3,0.2,5C324.7,281.5,324.6,283.6,324.2,285.6z"/>
<path class="st0" d="M199.8,279.5c0-5.6,0-11.1,0-16.7c0-1,0.3-1.3,1.2-1.2c1.2,0.1,2.5,0.1,3.7,0c0.8,0,1.3,0.2,1.6,1
	c0.3,0.8,0.7,1.5,1,2.3c0.3,0.8,0.6,0.9,1.3,0.5c2.4-1.2,5-2.2,7.3-3.5c1.9-1,3.7-0.9,5.5-0.1c4,1.7,6,4.9,6.5,9.1
	c0.2,2.1,0.1,4.2,0.1,6.3c0,6.3,0,12.5,0,18.8c0,0.9-0.3,1.2-1.2,1.1c-1.9-0.1-3.8-0.1-5.7,0c-1,0-1.3-0.1-1.3-1.2
	c0.1-7,0-13.9,0-20.9c0-0.9,0-1.7-0.2-2.6c-0.5-2.7-3-4.1-5.5-3c-1.8,0.7-3.6,1.5-5.4,2.2c-0.8,0.3-1,0.7-1,1.5c0,7.6,0,15.1,0,22.7
	c0,1-0.3,1.2-1.2,1.2c-1.9-0.1-3.8-0.1-5.7,0c-0.9,0-1.2-0.2-1.2-1.2C199.9,290.5,199.8,285,199.8,279.5z"/>
<path class="st0" d="M437.3,279c0,5.7,0,11.4,0,17.1c0,0.9-0.3,1.1-1.2,1.1c-2.1-0.1-4.3-0.1-6.4,0c-0.9,0-1.1-0.2-1.1-1.1
	c0-11.4,0-22.8,0-34.2c0-1-0.2-1.3-1.2-1.3c-3.2,0.1-6.4,0-9.7,0c-0.8,0-1-0.2-1-1c0-1.9,0-3.9,0-5.8c0-0.7,0.1-1,0.9-0.9
	c10.3,0,20.5,0,30.8,0c0.6,0,0.8,0.2,0.8,0.8c0,2,0,4,0,6.1c0,0.7-0.2,0.9-0.9,0.9c-3.3,0-6.6,0-9.9,0c-1,0-1.1,0.3-1.1,1.2
	C437.3,267.5,437.3,273.3,437.3,279z"/>
<path class="st0" d="M401.3,275c0-7,0-14,0-21c0-0.9,0.3-1.2,1.2-1.1c2.2,0.1,4.4,0.1,6.6,0c0.7,0,0.9,0.2,0.9,0.9
	c0,14.2,0,28.3,0,42.5c0,0.8-0.2,1-1,0.9c-2.2,0-4.4-0.1-6.6,0c-0.9,0-1.1-0.2-1.1-1.1C401.4,289.1,401.3,282,401.3,275z"/>
<path class="st0" d="M407.6,323.1c-0.8-1.9-2.2-3.1-4.3-3.2c-1.7-0.1-3.2,0.5-4.3,2.1v-4.5c0-3.1,0-3.1-3.1-3
	c-0.6,0-0.7,0.2-0.7,0.7c0,6.1,0,12.3,0,18.4c0,0.6,0.2,0.8,0.8,0.8c1.3,0,2.6,0.2,2.8-1.7c0.2,0.2,0.4,0.3,0.5,0.4
	c3,2.7,7.1,1.9,8.5-1.9C408.7,328.6,408.7,325.8,407.6,323.1z M404,330c-0.5,1-1.2,1.6-2.3,1.6c-1.2-0.1-2-0.6-2.3-1.8
	c-0.5-1.6-0.5-3.3-0.1-4.9c0.3-1.1,1-1.7,2.2-1.8c1.2-0.1,2,0.4,2.5,1.5c0.4,0.9,0.4,1.8,0.5,2.7C404.4,328.2,404.4,329.1,404,330z"
	/>
<path class="st0" d="M350.2,326.5c1.5-1.9,3.2-3.6,4.8-5.4c0.6-0.6,1.1-1,2-0.9c1,0.1,1.9,0,3.2,0c-1.3,1.4-2.4,2.6-3.5,3.8
	c-0.7,0.8-1.9,1.6-1.9,2.4c0,0.8,1.1,1.7,1.7,2.5c1.3,1.8,2.6,3.5,4.1,5.5c-1.5,0-2.8,0-4.2,0c-0.4,0-0.5-0.4-0.7-0.7
	c-1-1.4-1.9-2.7-2.9-4.1c-0.2-0.3-0.4-1.1-0.9-0.8c-0.6,0.4-1.5,0.7-1.5,1.6c0,1,0,2.1,0,3.1c0,0.6-0.1,0.8-0.8,0.8
	c-3.1,0.1-3.1,0.1-3.1-3c0-5.3,0-10.6,0-15.8c0-0.9,0.2-1.1,1.1-1.1c2.8,0,2.8,0,2.8,2.8C350.2,320.4,350.4,323.4,350.2,326.5z"/>
<path class="st0" d="M322.9,316c-2.3-0.4-4.6-0.1-6.9-0.2c-0.8,0-1,0.2-1,0.9c0.1,2.8,0,5.6,0,8.4c0,2.1,0,4.2,0,6.3
	c0,1-0.4,2.4,0.2,2.9c0.6,0.5,1.9,0.1,2.9,0.2c0.7,0.1,0.9-0.2,0.8-0.8c0-1.6,0-3.3,0-4.9c0-0.7,0.1-1,0.9-0.9c0.8,0,1.7,0,2.6-0.1
	c3.3-0.4,5.3-2.5,5.4-5.8C328,318.6,326.4,316.6,322.9,316z M322,324.4c-0.9,0.3-2.1,0.6-2.7,0.1c-0.8-0.6-0.1-1.8-0.3-2.5
	c0-0.4,0-0.6,0-0.7c0.2-0.7-0.6-2,0.5-2.2c2.5-0.5,4,0.3,4.3,2C324.2,322.7,323.4,324,322,324.4z"/>
<path class="st0" d="M423.2,324.3c0-2-1.2-3.4-3-4c-2.6-0.8-5.1-0.5-7.6,0.6c-0.2,0.1-0.6,0.1-0.5,0.5c0.3,0.7,0.6,1.6,1.1,2.2
	c0.4,0.4,1-0.2,1.5-0.4c1-0.3,2-0.5,3.1-0.4c1,0.1,1.7,1.1,1.6,2.2c-0.2,1.1-1,0.5-1.6,0.5c-1.7,0.1-3.5,0.2-5.1,1
	c-1.6,0.8-2.3,2.2-2.1,4.3c0.2,1.9,1.2,3.3,2.9,3.7c2.4,0.6,4.5,0.2,6.2-2c0.9,2.1,0.9,2.1,2.9,2c0.5,0,0.6-0.2,0.6-0.7
	C423.2,330.7,423.3,327.5,423.2,324.3z M419.5,329.4c-0.2,1.6-1.3,2.6-2.9,2.5c-0.9,0-1.7-0.2-1.9-1.2c-0.2-0.9,0.1-1.8,1-2.3
	c0.8-0.4,1.6-0.5,2.3-0.5C419.6,327.9,419.6,327.9,419.5,329.4z"/>
<path class="st0" d="M335,328.3c2,0.1,4,0,5.9,0c2.5,0,2.5,0,2.3-2.5c-0.2-3.1-1.8-5.1-4.5-5.7c-4.4-1-7.8,1.2-8.5,5.7
	c-0.2,1-0.2,2.1,0,3.1c0.3,2.3,1.4,4.2,3.7,5.1c2.6,1.1,5.2,0.9,7.8,0c0.4-0.1,0.7-0.3,0.6-0.8c0-0.8,0-1.5,0-2.4
	c-0.5,0.2-0.8,0.3-1.2,0.4c-1.5,0.5-3,0.8-4.6,0.5c-1.3-0.3-2.2-1.2-2.5-2.5C334.1,328.6,334.3,328.3,335,328.3z M334.4,324.7
	c0.4-1.3,1.3-1.9,2.6-1.9c1.3,0,2.2,0.7,2.5,2c0.2,0.7,0.2,1.1-0.8,1c-0.6-0.1-1.2,0-1.7,0c-0.6,0-1.2-0.1-1.9,0
	C334.2,325.8,334.2,325.4,334.4,324.7z"/>
<path class="st0" d="M374.1,324c-0.1-2-1.3-3.2-3.1-3.7c-2.6-0.7-5-0.4-7.5,0.6c-0.6,0.2-0.5,0.5-0.3,0.9c0.8,1.9,0.8,1.9,2.8,1.3
	c0.9-0.3,1.9-0.4,2.9-0.3c1,0.2,1.6,1,1.5,2.2c-0.1,1.2-1,0.5-1.5,0.6c-1.8,0.1-3.6,0.2-5.2,1c-1.5,0.8-2.2,2.2-2.1,4.1
	c0.2,2.1,1.1,3.4,2.8,3.8c2.4,0.6,4.6,0.2,6.3-2c0.9,2.1,0.9,2.1,2.9,2c0.4,0,0.6-0.1,0.6-0.6C374.1,330.6,374.2,327.3,374.1,324z
	 M370.3,329.3c-0.1,1.6-1.2,2.6-2.8,2.6c-0.9,0-1.7-0.2-1.9-1.2c-0.2-1,0.1-1.8,1.1-2.3c0.7-0.4,1.6-0.4,2.5-0.4
	C370.3,327.5,370.4,328.3,370.3,329.3z"/>
<path class="st0" d="M381.5,322.4c1.7-2.2,3.6-2.6,5.7-2.3c2.1,0.2,3.6,1.6,3.9,3.7c0.4,3.4,0.1,6.8,0.2,10.2c0,0.4-0.1,0.6-0.5,0.5
	c-0.1,0-0.2,0-0.2,0c-3.1,0.1-3.1,0.1-3.1-3c0-1.9,0-3.7,0-5.6c0-1.9-0.7-2.8-2-2.9c-1.7-0.1-2.8,0.7-3.1,2.5
	c-0.5,2.6-0.2,5.3-0.2,7.9c0,0.8-0.2,1.2-1.1,1.1c-0.9-0.1-2.1,0.4-2.7-0.2c-0.4-0.5-0.1-1.7-0.1-2.6c0-3.5,0-6.9,0-10.4
	c0-1,0.3-1.1,1.2-1.1C380.6,320.2,381.6,320.3,381.5,322.4z"/>
<path class="st0" d="M430.8,322.7c1.2-1.7,2.5-2.8,4.6-2.8c0.8,0,1.3,0.1,1,1.1c0,0,0,0.1,0,0.1c-0.1,0.7,0.1,1.6-0.2,2.2
	c-0.4,0.7-1.3,0.1-2,0.3c-2,0.4-2.9,1.5-3,3.6c0,2.1,0,4.3,0,6.4c0,0.7-0.1,0.9-0.9,0.9c-3,0-3,0.1-3-2.9c0-3.4,0-6.8,0-10.2
	c0-1,0.3-1.2,1.2-1.1C430.1,320.3,430.1,320.2,430.8,322.7z"/>
<path class="st2" d="M139.1,127.4c-0.1,0.1-0.2,0.1-0.2,0.2c-0.5-0.9-0.6-1.9-0.8-2.8C138.6,125.6,138.9,126.5,139.1,127.4z"/>
</svg>
